<?xml version="1.0" standalone="no"?>
<!DOCTYPE svg PUBLIC "-//W3C//DTD SVG 20010904//EN"
 "http://www.w3.org/TR/2001/REC-SVG-20010904/DTD/svg10.dtd">
<svg version="1.0" xmlns="http://www.w3.org/2000/svg"
 width="1781.000000pt" height="1781.000000pt" viewBox="0 0 1781.000000 1781.000000"
 preserveAspectRatio="xMidYMid meet">

<g transform="translate(0.000000,1781.000000) scale(0.100000,-0.100000)"
fill="currenColor" stroke="currentColor">
<path d="M8475 17010 c-475 -33 -939 -102 -1376 -205 -2184 -518 -4072 -1948
-5171 -3916 -506 -905 -846 -1948 -962 -2951 -50 -430 -70 -1023 -47 -1413 55
-933 244 -1779 586 -2615 893 -2186 2728 -3892 4965 -4615 1081 -350 2173
-467 3320 -354 1843 180 3585 1012 4905 2343 1236 1247 2023 2836 2264 4576
56 399 75 742 68 1219 -7 549 -46 932 -142 1431 -380 1957 -1487 3714 -3100
4918 -1112 830 -2424 1359 -3800 1532 -345 43 -500 52 -945 55 -239 2 -493 -1
-565 -5z m921 -70 c1121 -64 2146 -335 3134 -826 900 -449 1694 -1051 2367
-1794 902 -998 1536 -2201 1847 -3505 289 -1212 289 -2500 0 -3710 -302 -1263
-904 -2427 -1764 -3410 -141 -161 -473 -498 -645 -654 -1680 -1522 -3896
-2253 -6155 -2030 -1662 164 -3210 835 -4475 1940 -168 147 -483 456 -645 634
-1137 1250 -1851 2827 -2030 4485 -34 314 -41 424 -47 750 -27 1421 316 2789
1010 4035 773 1388 1975 2538 3395 3249 977 489 2030 771 3122 835 211 12 680
13 886 1z"/>
<path d="M8648 16577 c-97 -7 -128 -13 -128 -23 0 -9 11 -14 30 -14 17 0 38
-8 48 -18 17 -17 19 -45 25 -283 4 -145 4 -274 1 -285 -8 -31 -114 -43 -169
-20 -42 18 -175 143 -224 210 l-31 44 35 22 c147 91 110 292 -56 308 -76 7
-389 -29 -389 -45 0 -8 13 -13 33 -13 61 0 62 -4 91 -265 15 -132 29 -256 32
-276 7 -42 -14 -69 -52 -69 -15 0 -24 -6 -24 -16 0 -13 7 -15 38 -11 20 3 83
12 140 18 71 9 102 17 102 26 0 8 -13 13 -34 13 -18 0 -39 6 -46 14 -14 18
-39 154 -40 219 0 45 1 47 29 47 22 0 47 -20 125 -99 54 -54 109 -115 122
-135 25 -36 25 -36 97 -36 40 0 150 3 245 7 134 5 172 9 172 20 0 7 -10 13
-23 13 -13 0 -32 6 -43 14 -17 13 -20 32 -25 208 -4 106 -10 228 -14 271 -7
72 -6 79 14 101 12 13 36 26 53 30 18 3 28 11 26 18 -6 17 -10 17 -160 5z
m-462 -139 c35 -35 43 -108 17 -158 -20 -37 -82 -75 -144 -85 l-37 -7 -11 89
c-6 48 -14 108 -17 132 -7 57 2 63 93 59 63 -3 76 -7 99 -30z"/>
<path d="M9202 16551 c-7 -22 -39 -93 -71 -158 -70 -141 -166 -349 -175 -380
-9 -28 -52 -63 -77 -63 -11 0 -19 -6 -19 -14 0 -9 26 -17 88 -25 49 -6 94 -11
100 -11 23 0 12 19 -19 36 -27 13 -30 20 -26 47 3 18 15 58 28 90 l24 57 129
-2 130 -3 23 -60 c13 -33 26 -77 29 -97 6 -34 4 -39 -21 -50 -26 -12 -21 -13
71 -25 74 -10 106 -10 127 -2 29 12 36 29 12 29 -44 0 -93 65 -125 165 -7 22
-42 117 -78 210 -36 94 -73 197 -82 230 -13 45 -22 61 -37 63 -15 2 -22 -6
-31 -37z m48 -261 c22 -62 39 -115 37 -117 -3 -2 -50 -2 -105 -1 l-101 3 40
84 c42 91 79 154 85 148 2 -2 22 -55 44 -117z"/>
<path d="M10198 16477 c7 -8 24 -18 37 -21 23 -6 25 -11 25 -69 0 -63 -24
-234 -59 -411 -20 -107 -33 -126 -83 -126 -18 0 -28 -5 -28 -15 0 -10 10 -15
30 -15 16 0 71 -7 121 -16 115 -20 136 -16 85 14 l-38 22 7 63 c4 34 11 80 16
102 5 22 9 57 9 78 0 20 3 37 8 36 4 0 38 -6 77 -13 67 -12 71 -14 100 -57
l30 -44 11 50 c7 28 12 75 13 105 l1 55 -26 -32 c-21 -27 -32 -33 -65 -33 -22
0 -60 5 -85 11 -51 13 -52 16 -29 124 8 38 15 82 15 97 0 28 0 28 68 27 87 0
150 -24 179 -68 13 -19 23 -45 23 -57 0 -35 31 -26 36 11 1 6 4 33 8 62 l6 51
-42 7 c-24 3 -110 19 -193 35 -82 16 -177 32 -210 36 -53 6 -58 5 -47 -9z"/>
<path d="M7336 16368 c-9 -29 -31 -147 -51 -263 -46 -276 -67 -346 -119 -404
l-21 -23 35 4 c92 13 170 33 170 45 0 7 -9 13 -21 13 -45 0 -56 16 -52 72 9
108 30 129 160 154 126 24 124 25 169 -61 l39 -75 -30 -24 c-16 -13 -28 -26
-25 -29 5 -4 68 7 198 34 34 7 62 18 62 24 0 6 -21 16 -46 23 -56 15 -77 37
-171 182 -110 168 -262 380 -273 380 -5 0 -16 -24 -24 -52z m54 -137 c0 -5 27
-49 60 -98 33 -48 60 -93 60 -99 0 -8 -191 -58 -196 -51 -1 1 7 43 17 92 10
50 19 104 19 121 0 17 3 34 7 37 10 10 33 8 33 -2z"/>
<path d="M6905 16311 c-33 -9 -125 -40 -205 -69 -80 -28 -165 -56 -188 -62
l-44 -11 8 -37 c4 -20 10 -55 13 -77 9 -57 34 -54 39 5 2 25 8 52 13 61 13 25
141 72 151 56 12 -20 156 -459 163 -500 7 -35 5 -42 -25 -68 -18 -17 -30 -33
-26 -36 3 -3 45 8 93 26 48 17 106 35 128 39 55 11 54 36 -1 40 -24 2 -48 10
-56 20 -17 20 -168 470 -168 501 0 28 52 51 117 51 39 0 53 -5 81 -32 l35 -33
-6 35 c-8 50 -35 110 -50 109 -6 0 -39 -8 -72 -18z"/>
<path d="M10953 16276 c-60 -20 -107 -51 -153 -103 -53 -60 -70 -121 -70 -248
0 -88 3 -108 26 -152 31 -63 89 -117 161 -150 75 -35 182 -31 265 10 68 34
138 98 170 158 20 39 23 58 23 164 0 101 -3 127 -21 166 -27 59 -79 110 -140
140 -60 28 -195 37 -261 15z m227 -48 c61 -32 83 -78 88 -188 7 -150 -51 -304
-137 -365 -37 -26 -51 -30 -105 -29 -86 1 -134 26 -163 84 -32 62 -33 218 -2
307 25 74 82 159 128 190 46 31 130 32 191 1z"/>
<path d="M11589 16117 l35 -37 -13 -52 c-11 -43 -71 -206 -163 -442 -13 -32
-63 -58 -95 -50 -12 3 -24 1 -27 -5 -4 -6 5 -13 21 -17 15 -3 62 -22 104 -40
42 -19 92 -37 110 -40 l34 -6 -32 30 c-18 17 -33 38 -33 47 0 8 13 50 30 93
16 42 32 92 36 110 8 37 21 40 58 11 34 -27 40 -42 72 -188 34 -148 51 -183
107 -210 45 -22 107 -28 107 -12 0 6 -16 22 -35 36 -22 18 -41 45 -54 81 -29
76 -73 253 -66 264 4 6 25 10 48 10 96 1 167 64 167 148 0 111 -69 168 -310
255 -52 19 -104 38 -115 42 -14 6 -10 -2 14 -28z m232 -113 c85 -44 91 -179
10 -227 -30 -17 -102 -22 -160 -11 -40 8 -40 22 4 134 19 49 35 99 35 111 0
20 4 21 41 15 23 -4 54 -13 70 -22z"/>
<path d="M6248 16092 c-129 -47 -153 -67 -83 -67 28 0 42 -6 56 -25 23 -31
190 -476 191 -510 0 -13 -5 -26 -12 -28 -15 -5 -53 -42 -48 -47 2 -2 42 11 88
30 47 19 106 40 133 47 28 7 47 17 47 26 0 11 -8 13 -31 8 -56 -11 -76 1 -95
57 -9 29 -43 117 -74 197 -32 80 -68 178 -80 218 l-22 74 31 28 c17 16 31 31
31 34 0 8 14 12 -132 -42z"/>
<path d="M5957 15993 c-2 -5 -7 -20 -11 -35 -6 -25 -11 -28 -44 -28 -50 0
-139 -27 -176 -53 -30 -21 -65 -87 -66 -122 0 -78 64 -164 136 -184 22 -6 81
-15 131 -20 118 -12 169 -28 204 -64 33 -32 36 -55 14 -97 -19 -37 -61 -66
-116 -81 -63 -16 -118 1 -174 55 -35 33 -45 38 -45 24 0 -22 44 -130 68 -166
l16 -25 6 24 c5 22 15 25 96 39 157 27 234 95 234 209 0 63 -20 101 -73 138
-40 28 -68 35 -241 58 -61 8 -122 23 -139 32 -57 34 -60 104 -6 154 61 57 151
44 236 -34 24 -22 46 -38 49 -35 6 7 -78 218 -88 218 -4 0 -9 -3 -11 -7z"/>
<path d="M9643 15969 c-18 -18 -16 -84 2 -99 9 -7 27 -10 45 -6 25 4 30 2 30
-14 0 -39 -20 -70 -58 -89 -22 -11 -42 -27 -45 -35 -10 -25 56 4 108 47 44 37
45 39 45 97 0 53 -3 60 -29 79 -38 27 -82 36 -98 20z"/>
<path d="M12168 15837 c-32 -62 -40 -87 -29 -87 4 0 16 9 25 19 33 37 70 45
124 27 94 -32 96 -12 -28 -281 -61 -131 -118 -247 -126 -257 -10 -10 -34 -18
-62 -20 l-46 -3 104 -52 c145 -71 183 -81 124 -29 -39 33 -31 60 96 310 61
119 110 223 110 231 0 20 0 20 75 -21 77 -42 89 -61 81 -122 -5 -40 -4 -43 10
-31 21 17 52 80 56 113 3 27 -4 31 -232 142 -129 62 -239 114 -245 114 -5 0
-22 -24 -37 -53z"/>
<path d="M8551 15669 c-1651 -89 -3206 -784 -4376 -1954 -1296 -1295 -2001
-3048 -1962 -4875 16 -721 132 -1380 362 -2050 428 -1250 1236 -2363 2296
-3162 549 -415 1098 -714 1748 -954 1119 -412 2370 -512 3566 -283 1738 332
3292 1358 4284 2829 603 895 973 1884 1100 2940 39 317 46 450 45 825 0 396
-12 577 -60 920 -235 1690 -1102 3216 -2439 4295 -1283 1034 -2912 1559 -4564
1469z m644 -69 c1363 -64 2622 -512 3692 -1317 2114 -1588 3081 -4239 2487
-6818 -218 -944 -664 -1864 -1275 -2625 -344 -430 -773 -847 -1204 -1170
-1509 -1134 -3417 -1567 -5280 -1199 -1174 232 -2263 782 -3159 1595 -133 121
-413 404 -522 529 -1223 1400 -1799 3194 -1618 5040 146 1496 805 2902 1863
3979 496 504 1011 890 1628 1219 1029 550 2225 821 3388 767z"/>
<path d="M6780 15074 c0 -12 93 -220 143 -319 215 -430 484 -791 767 -1027
376 -316 797 -477 1315 -503 167 -9 359 7 424 35 57 25 119 86 152 152 12 23
27 46 33 50 18 12 1 9 -35 -6 -19 -7 -44 -17 -57 -21 -21 -6 -21 -5 -11 19 19
40 3 109 -31 140 -29 25 -32 26 -64 12 -34 -14 -56 -42 -56 -68 1 -7 7 1 15
19 37 86 135 22 122 -80 -7 -48 -22 -67 -57 -67 -29 0 -53 21 -69 60 -6 16
-10 19 -10 8 -1 -9 11 -30 25 -47 19 -23 34 -31 58 -31 18 0 36 3 40 7 10 10
79 33 85 28 6 -6 -41 -75 -75 -109 -52 -52 -107 -70 -229 -74 -342 -12 -539
141 -666 515 -64 191 -59 486 12 626 52 102 118 158 237 201 202 73 437 -1
581 -183 41 -52 41 -61 1 -76 -77 -29 3 -13 100 20 57 19 110 35 117 35 21 0
46 -48 46 -91 0 -39 -24 -79 -47 -79 -6 0 -60 -17 -121 -39 -155 -54 -209 -68
-296 -76 l-76 -6 -7 34 c-4 19 -17 46 -30 60 l-24 26 76 22 c41 13 70 25 64
27 -13 4 -202 -56 -202 -65 0 -3 7 -3 15 1 25 9 63 -15 75 -47 15 -44 13 -54
-15 -61 -13 -3 -35 -20 -47 -36 l-22 -30 -23 22 c-28 26 -31 91 -6 128 16 24
16 24 -1 10 -26 -21 -34 -48 -26 -91 6 -33 4 -40 -21 -59 -16 -11 -29 -25 -29
-30 0 -5 11 2 25 16 24 24 26 25 50 7 17 -13 25 -28 26 -55 1 -21 2 -44 3 -50
2 -21 -75 -14 -91 8 -7 10 -13 13 -13 7 0 -21 34 -38 94 -46 33 -4 78 -10 100
-13 26 -5 37 -3 32 4 -4 7 -19 9 -35 6 -57 -12 -91 78 -56 146 15 30 38 40 85
39 14 0 143 8 287 17 315 21 312 22 303 -62 -10 -90 -15 -92 -241 -110 -107
-9 -201 -18 -209 -21 -8 -4 -34 -5 -57 -4 -24 2 -43 -2 -43 -7 0 -11 102 -21
110 -11 9 12 110 15 114 3 3 -8 -23 -14 -80 -19 -46 -4 -86 -11 -90 -16 -3 -5
6 -9 20 -9 62 0 77 -120 21 -168 -15 -13 -34 -21 -41 -18 -36 15 -47 16 -24 3
19 -11 42 -13 95 -7 52 5 59 8 28 9 l-43 1 20 33 c23 38 26 87 6 126 l-15 27
270 13 c295 14 299 14 299 -41 0 -25 -6 -31 -46 -48 -25 -11 -51 -20 -57 -20
-7 0 -50 -16 -97 -35 -46 -19 -95 -35 -108 -35 -13 0 -21 -4 -18 -9 4 -5 0
-12 -6 -15 -7 -3 1 -3 17 -1 17 3 75 22 130 44 231 91 274 104 289 92 23 -20
38 -78 31 -120 -6 -37 -10 -41 -71 -67 -106 -45 -66 -37 60 12 64 26 116 48
114 50 -4 4 -67 -18 -85 -29 -9 -6 -10 -1 -2 23 14 38 5 90 -22 123 l-20 26
21 11 c12 6 31 13 43 16 48 9 116 38 110 47 -3 6 -1 7 4 4 6 -4 28 1 49 10 22
9 68 26 104 38 l65 23 -47 -1 c-27 0 -48 -4 -48 -8 0 -17 -102 -38 -210 -43
-63 -4 -153 -9 -200 -11 l-85 -6 48 20 c48 19 234 41 353 41 29 0 54 5 54 10
0 6 19 10 43 11 23 0 36 3 29 6 -7 3 -104 -3 -215 -12 -111 -9 -239 -18 -284
-20 -45 -2 -87 -6 -92 -10 -6 -3 -11 -1 -11 4 0 6 4 11 8 11 30 0 43 127 16
154 -14 15 -9 16 53 16 102 1 313 10 548 24 129 8 217 9 228 3 16 -7 18 -17
13 -60 -9 -81 -10 -84 -21 -83 -5 0 -54 -3 -108 -8 -80 -7 -95 -11 -81 -21 11
-8 31 -9 58 -5 45 8 136 17 289 27 l97 6 -8 -24 c-5 -13 -24 -32 -43 -41 -19
-9 -39 -21 -45 -27 -7 -5 -14 -8 -16 -5 -3 2 -35 -9 -71 -26 -37 -16 -71 -30
-77 -30 -11 0 -214 -85 -240 -101 -38 -23 63 8 143 43 48 22 97 41 108 43 11
2 45 16 76 30 74 34 83 33 83 -11 0 -44 -27 -92 -54 -97 -12 -2 8 -4 44 -4 57
0 60 1 25 7 -22 4 -35 8 -29 9 19 2 37 59 31 101 -5 40 3 50 44 50 10 0 19 4
19 9 0 5 14 14 30 21 17 7 29 15 26 17 -2 3 -13 0 -25 -6 -19 -11 -19 -10 -10
19 12 32 16 33 139 35 33 0 155 43 147 52 -2 2 -25 -5 -51 -16 -47 -21 -56
-20 -33 4 8 7 14 33 15 57 2 35 -3 49 -20 64 -20 17 -32 18 -88 13 l-65 -6 66
-1 c64 -2 66 -3 84 -36 17 -32 17 -34 -1 -71 -17 -34 -23 -38 -64 -41 -25 -1
-116 -8 -203 -15 -87 -6 -160 -9 -163 -6 -3 3 -1 14 5 25 14 26 14 77 1 103
-10 17 -7 19 32 20 24 1 34 4 23 6 -11 3 -22 9 -25 13 -3 4 -30 4 -60 0 -30
-5 -154 -14 -274 -20 -199 -11 -220 -11 -228 4 -13 24 -31 20 -18 -4 6 -11 7
-20 1 -20 -5 0 -11 7 -15 15 -3 8 -10 15 -16 15 -6 0 -9 -4 -6 -9 4 -5 -4 -7
-16 -3 -12 3 -19 1 -15 -4 3 -5 -22 -11 -56 -12 -34 -2 -65 -6 -69 -8 -18 -12
-57 9 -63 34 -4 15 -16 37 -28 50 -12 13 -17 22 -12 20 6 -2 10 2 10 7 0 11
-10 11 -41 1 -20 -6 -21 -3 -20 53 0 36 -4 65 -12 73 -23 23 -12 35 53 53 36
9 65 21 65 25 0 5 -70 -15 -156 -43 l-156 -52 -31 40 c-174 225 -369 286 -682
212 -189 -44 -309 -59 -545 -64 -176 -4 -253 -2 -353 11 -387 50 -713 197
-1014 456 -77 67 -93 78 -93 64z m243 -206 c237 -174 539 -290 872 -334 212
-28 663 -6 840 42 l20 5 -20 -16 c-92 -73 -139 -141 -170 -250 -42 -145 -35
-406 14 -547 17 -45 28 -84 27 -85 -2 -2 -43 10 -92 26 -630 207 -1150 585
-1547 1122 -43 58 -88 121 -100 140 l-22 34 43 -35 c24 -19 85 -65 135 -102z
m10 -155 c392 -488 912 -846 1492 -1027 l91 -28 37 -71 c20 -39 34 -73 32 -75
-2 -3 -69 17 -147 43 -343 114 -625 262 -903 474 -128 97 -359 326 -465 460
-83 106 -240 334 -240 348 0 4 11 -5 23 -22 12 -16 48 -62 80 -102z m-20 -41
c216 -319 484 -586 802 -795 213 -140 593 -313 819 -373 64 -16 75 -24 130
-82 71 -76 137 -120 224 -152 34 -13 60 -25 58 -27 -7 -7 -249 16 -348 33
-338 57 -629 185 -923 407 -106 80 -342 318 -434 437 -87 113 -192 267 -259
382 -64 109 -152 273 -152 283 0 11 -2 14 83 -113z m2751 -474 c9 -12 16 -30
16 -39 0 -22 -31 -27 -220 -34 l-145 -6 140 49 c160 58 187 61 209 30z m44
-280 c-16 -5 -28 -13 -28 -17 0 -4 -8 -7 -17 -8 -229 -19 -317 -22 -325 -11
-5 9 1 14 20 16 59 8 309 29 342 30 35 0 35 0 8 -10z m292 -49 c-25 -11 -53
-21 -62 -22 -10 -1 -18 -6 -18 -11 0 -5 -3 -7 -6 -3 -3 3 -28 -3 -55 -14 -65
-25 -72 -24 -65 5 3 14 2 28 -4 31 -27 17 -2 25 88 28 53 1 113 3 132 4 l35 2
-45 -20z"/>
<path d="M10937 14803 c37 -5 53 -21 63 -66 6 -24 8 -26 9 -9 1 13 -6 36 -14
52 -13 26 -21 30 -53 28 -36 -1 -36 -1 -5 -5z"/>
<path d="M10835 14780 c-13 -6 -15 -9 -5 -9 8 0 22 4 30 9 18 12 2 12 -25 0z"/>
<path d="M10695 14735 c-38 -12 -63 -23 -54 -24 17 -1 139 38 139 45 0 7 -13
4 -85 -21z"/>
<path d="M10580 14700 c-18 -12 -2 -12 25 0 13 6 15 9 5 9 -8 0 -22 -4 -30 -9z"/>
<path d="M10978 14678 c-10 -10 -14 -18 -9 -18 10 0 36 29 30 34 -2 1 -12 -6
-21 -16z"/>
<path d="M10490 14670 c-12 -8 -10 -10 10 -10 18 0 31 -9 43 -29 38 -65 8
-107 -101 -140 -41 -13 -72 -25 -70 -27 3 -2 47 10 100 26 l95 30 2 54 c2 45
-2 58 -22 80 -26 28 -34 31 -57 16z"/>
<path d="M10373 14638 c-18 -6 -33 -14 -33 -19 0 -7 87 17 99 27 8 7 -35 2
-66 -8z"/>
<path d="M10862 14633 c-24 -8 -41 -17 -39 -19 4 -5 97 26 97 32 0 6 -11 4
-58 -13z"/>
<path d="M10265 14599 c-27 -10 -37 -17 -21 -14 31 7 97 33 81 33 -5 0 -32 -8
-60 -19z"/>
<path d="M10750 14595 c-19 -7 -28 -14 -19 -14 9 -1 32 6 50 14 43 18 16 18
-31 0z"/>
<path d="M10910 14600 c8 -5 20 -10 25 -10 6 0 3 5 -5 10 -8 5 -19 10 -25 10
-5 0 -3 -5 5 -10z"/>
<path d="M10110 14550 c-47 -15 -78 -28 -69 -29 16 -1 158 45 167 54 9 9 -11
4 -98 -25z"/>
<path d="M10665 14565 c-25 -12 -26 -14 -5 -9 28 7 60 23 45 23 -5 0 -23 -6
-40 -14z"/>
<path d="M10956 14558 c8 -38 -3 -66 -34 -83 -15 -8 -22 -14 -16 -15 6 0 23 9
38 21 27 21 34 61 16 89 -8 11 -9 8 -4 -12z"/>
<path d="M10557 14498 c-82 -27 -146 -52 -144 -54 2 -2 24 3 50 12 47 16 85 8
89 -19 0 -7 2 -16 3 -22 2 -5 3 -16 4 -23 0 -7 6 -10 12 -6 13 8 3 51 -17 72
-8 8 -12 18 -7 22 4 5 51 22 103 38 52 17 86 30 75 30 -11 0 -87 -22 -168 -50z"/>
<path d="M11100 14483 c14 -3 34 -12 45 -21 20 -17 20 -17 1 6 -12 13 -29 21
-45 21 l-26 -2 25 -4z"/>
<path d="M10895 14430 c-44 -16 -76 -29 -72 -29 19 -2 157 43 157 51 0 4 -1 8
-2 7 -2 0 -39 -13 -83 -29z"/>
<path d="M10272 14433 c-24 -8 -41 -17 -39 -19 4 -5 97 26 97 32 0 6 -11 4
-58 -13z"/>
<path d="M10360 14434 l-35 -14 34 5 c34 5 48 12 40 19 -2 2 -20 -3 -39 -10z"/>
<path d="M10815 14435 c-25 -12 -26 -14 -5 -9 28 7 60 23 45 23 -5 0 -23 -6
-40 -14z"/>
<path d="M11154 14414 c-1 -14 -10 -34 -20 -45 -9 -10 -14 -19 -11 -19 15 0
47 46 47 67 0 31 -15 29 -16 -3z"/>
<path d="M10700 14399 c-41 -18 -42 -19 -11 -13 46 8 103 33 76 33 -11 0 -40
-9 -65 -20z"/>
<path d="M10745 14380 c-13 -6 -15 -9 -5 -9 8 0 22 4 30 9 18 12 2 12 -25 0z"/>
<path d="M10611 14369 c-14 -5 -31 -7 -38 -5 -7 3 -23 -4 -35 -16 -12 -12 -15
-19 -7 -16 8 3 38 13 67 22 28 10 52 19 52 22 0 6 -12 4 -39 -7z"/>
<path d="M10064 14362 c-8 -5 -7 -11 4 -22 14 -13 15 -12 9 2 -3 9 -1 19 6 22
7 2 8 5 2 5 -5 0 -15 -3 -21 -7z"/>
<path d="M10630 14345 c-78 -28 -72 -31 15 -8 70 19 88 13 99 -32 9 -36 -10
-73 -46 -89 -18 -8 -27 -15 -20 -15 17 -1 164 50 159 56 -2 2 -21 -3 -43 -11
l-39 -13 3 46 c3 36 -1 51 -18 69 -25 26 -26 26 -110 -3z"/>
<path d="M10032 14336 c7 -8 17 -12 22 -9 4 3 2 9 -5 14 -22 13 -31 11 -17 -5z"/>
<path d="M9970 14331 c-14 -4 -24 -13 -22 -19 1 -7 -2 -12 -8 -12 -5 0 -10 5
-10 10 0 6 -4 10 -10 10 -15 0 -12 -17 5 -23 22 -9 110 24 94 34 -16 10 -15
10 -49 0z"/>
<path d="M10952 14303 c-40 -14 -72 -27 -70 -29 5 -5 168 45 168 51 0 9 -25 3
-98 -22z"/>
<path d="M10435 14310 c-13 -5 -14 -9 -5 -9 8 0 24 4 35 9 13 5 14 9 5 9 -8 0
-24 -4 -35 -9z"/>
<path d="M9890 14302 c0 -12 19 -26 26 -19 2 2 -2 10 -11 17 -9 8 -15 8 -15 2z"/>
<path d="M9862 14288 c2 -6 10 -14 16 -16 7 -2 10 2 6 12 -7 18 -28 22 -22 4z"/>
<path d="M9836 14276 c3 -9 11 -16 16 -16 13 0 5 23 -10 28 -7 2 -10 -2 -6
-12z"/>
<path d="M10350 14280 c-8 -5 -10 -10 -5 -10 6 0 17 5 25 10 8 5 11 10 5 10
-5 0 -17 -5 -25 -10z"/>
<path d="M9790 14270 c-12 -7 -12 -12 -2 -22 9 -9 12 -8 12 8 0 15 2 16 10 4
5 -8 12 -11 15 -8 8 7 -2 28 -13 28 -4 0 -14 -5 -22 -10z"/>
<path d="M11112 14243 c-60 -21 -46 -27 16 -7 l52 17 25 -27 c14 -15 25 -23
25 -18 0 14 -45 52 -61 51 -8 0 -33 -7 -57 -16z"/>
<path d="M10242 14241 c-11 -6 -10 -10 4 -15 9 -3 19 -4 22 -1 3 3 -1 5 -9 5
-11 0 -11 2 1 10 8 5 11 10 5 10 -5 0 -16 -4 -23 -9z"/>
<path d="M10183 14217 c3 -9 2 -17 -3 -17 -6 0 -10 5 -10 10 0 6 -5 10 -11 10
-6 0 -9 -7 -5 -15 3 -8 1 -15 -4 -15 -6 0 -10 5 -10 10 0 6 -5 10 -12 10 -8 0
-7 -5 3 -16 14 -13 20 -13 47 -2 28 12 29 14 14 28 -14 13 -15 12 -9 -3z"/>
<path d="M10210 14220 c8 -5 20 -10 25 -10 6 0 3 5 -5 10 -8 5 -19 10 -25 10
-5 0 -3 -5 5 -10z"/>
<path d="M11030 14210 c-8 -5 -10 -10 -5 -10 6 0 17 5 25 10 8 5 11 10 5 10
-5 0 -17 -5 -25 -10z"/>
<path d="M10100 14192 c0 -12 19 -26 26 -19 2 2 -2 10 -11 17 -9 8 -15 8 -15
2z"/>
<path d="M10072 14178 c2 -6 10 -14 16 -16 7 -2 10 2 6 12 -7 18 -28 22 -22 4z"/>
<path d="M11231 14173 c0 -12 -4 -30 -7 -40 -5 -17 -5 -17 6 0 6 10 9 28 7 40
-4 22 -4 22 -6 0z"/>
<path d="M10737 14173 c18 -2 50 -2 70 0 21 2 7 4 -32 4 -38 0 -55 -2 -38 -4z"/>
<path d="M11185 14100 c-3 -5 -2 -10 4 -10 5 0 13 5 16 10 3 6 2 10 -4 10 -5
0 -13 -4 -16 -10z"/>
<path d="M11140 14080 c-8 -5 -10 -10 -5 -10 6 0 17 5 25 10 8 5 11 10 5 10
-5 0 -17 -5 -25 -10z"/>
<path d="M9176 14053 c5 -10 9 -40 9 -66 0 -37 -5 -52 -19 -63 -11 -7 -16 -17
-12 -21 12 -13 47 32 53 70 6 38 -12 97 -29 97 -6 0 -7 -7 -2 -17z"/>
<path d="M10940 14000 c-13 -8 -13 -10 2 -10 9 0 20 5 23 10 8 13 -5 13 -25 0z"/>
<path d="M8921 13974 c0 -11 3 -14 6 -6 3 7 2 16 -1 19 -3 4 -6 -2 -5 -13z"/>
<path d="M10890 13980 c-8 -5 -10 -10 -5 -10 6 0 17 5 25 10 8 5 11 10 5 10
-5 0 -17 -5 -25 -10z"/>
<path d="M11045 13939 c4 -6 23 -8 45 -5 28 4 42 0 58 -14 31 -29 40 -24 12 5
-19 20 -33 25 -72 25 -33 0 -47 -4 -43 -11z"/>
<path d="M10893 13933 c26 -2 67 -2 90 0 23 2 2 3 -48 3 -49 0 -68 -1 -42 -3z"/>
<path d="M11162 13846 c-6 -24 -18 -46 -27 -50 -8 -3 -86 -11 -173 -18 l-157
-13 85 -7 c134 -10 187 -9 170 2 -11 7 -3 10 28 10 33 0 48 6 67 26 14 15 25
33 25 40 0 22 21 27 35 8 19 -25 18 -38 -4 -65 -14 -18 -33 -25 -77 -30 l-59
-6 50 -2 c102 -3 149 76 76 128 l-27 20 -12 -43z"/>
<path d="M9201 13824 c-15 -19 -21 -41 -21 -80 0 -29 3 -55 8 -57 4 -3 7 23 7
58 0 48 5 68 19 84 11 12 16 21 13 21 -3 0 -15 -12 -26 -26z"/>
<path d="M10235 13719 c-33 -15 -56 -28 -52 -28 5 -1 18 4 30 11 12 7 117 20
232 29 l210 18 -153 -5 c-85 -3 -160 -8 -168 -11 -8 -3 -20 -1 -27 5 -8 6 -31
1 -72 -19z"/>
<path d="M10140 13680 c-8 -5 -10 -10 -5 -10 6 0 17 5 25 10 8 5 11 10 5 10
-5 0 -17 -5 -25 -10z"/>
<path d="M9438 13663 c18 -2 45 -2 60 0 15 2 0 4 -33 4 -33 0 -45 -2 -27 -4z"/>
<path d="M9480 13630 c-8 -5 -10 -10 -5 -10 6 0 17 5 25 10 8 5 11 10 5 10 -5
0 -17 -5 -25 -10z"/>
<path d="M9785 13541 c-63 -24 -132 -59 -95 -48 38 12 180 69 180 73 0 7 -11
3 -85 -25z"/>
<path d="M9640 13480 c-8 -5 -10 -10 -5 -10 6 0 17 5 25 10 8 5 11 10 5 10 -5
0 -17 -5 -25 -10z"/>
<path d="M10680 11879 c-52 -10 -111 -49 -151 -99 -45 -56 -1088 -2054 -1101
-2108 -22 -97 45 -179 169 -208 44 -10 156 -14 454 -14 464 0 468 1 552 83 75
74 96 109 368 619 134 252 246 457 249 457 3 0 92 -149 198 -332 105 -184 198
-341 205 -350 11 -15 65 15 512 279 275 162 529 313 565 334 35 22 66 38 67
36 2 -2 -97 -206 -221 -454 -124 -247 -230 -468 -236 -490 -17 -66 5 -106 77
-139 55 -26 66 -27 333 -35 151 -5 375 -8 497 -6 253 3 254 4 307 94 24 41
695 1338 1028 1984 127 247 137 302 58 332 -14 5 -253 14 -542 19 l-518 10
-67 -24 c-45 -16 -190 -100 -423 -247 -727 -456 -819 -513 -826 -512 -3 0
-100 162 -213 359 -231 401 -223 392 -351 412 -79 13 -924 13 -990 0z m3430
-24 c245 -4 462 -11 483 -16 21 -6 41 -17 44 -26 15 -38 12 -42 -653 -1323
-78 -151 -219 -423 -312 -605 -93 -181 -183 -345 -199 -364 -23 -26 -40 -35
-79 -41 -27 -4 -245 -4 -484 0 -357 7 -444 11 -487 24 -58 18 -93 54 -93 95 0
15 110 251 245 524 135 274 245 500 245 502 0 14 -37 -5 -203 -104 -478 -285
-967 -571 -974 -571 -4 0 -98 157 -209 348 -110 191 -207 347 -214 347 -8 0
-128 -214 -276 -489 -265 -493 -321 -584 -399 -638 -65 -45 -115 -49 -530 -43
-424 7 -460 12 -523 70 -35 31 -37 37 -37 92 0 57 6 70 532 1073 379 724 544
1029 574 1064 78 89 57 86 606 86 519 0 565 -4 614 -49 16 -14 115 -177 221
-362 106 -185 200 -346 209 -359 l15 -23 595 373 c326 205 613 381 637 392 55
25 117 37 167 32 22 -2 240 -6 485 -9z"/>
<path d="M9151 11867 c-19 -6 -58 -34 -87 -61 -48 -46 -81 -105 -342 -606
-160 -305 -404 -771 -542 -1035 -226 -430 -253 -486 -257 -537 -5 -57 -4 -59
34 -97 68 -69 91 -72 559 -78 225 -3 431 -3 456 1 59 9 125 53 168 113 19 26
83 140 143 253 960 1807 1021 1925 1021 1969 1 36 -4 47 -27 65 -28 21 -34 21
-560 23 -365 1 -543 -2 -566 -10z m1099 -18 c33 -12 46 -43 36 -83 -5 -19
-932 -1780 -1104 -2096 -55 -102 -121 -171 -178 -188 -52 -15 -775 -17 -879
-1 -83 12 -147 40 -170 76 -40 61 -51 38 526 1141 297 570 554 1053 569 1072
30 39 97 80 150 92 53 11 1013 -1 1050 -13z"/>
<path d="M4004 9169 c-50 -5 -122 -18 -160 -31 -68 -23 -69 -24 -72 -61 -2
-20 4 -85 12 -142 21 -136 21 -135 -9 -135 -17 0 -46 22 -101 80 -43 44 -88
83 -100 86 -41 10 -123 -45 -245 -166 -108 -107 -179 -203 -178 -240 0 -8 21
-28 47 -45 26 -16 68 -58 94 -93 l48 -63 -16 -37 c-9 -20 -29 -73 -44 -117
l-28 -80 -143 -8 c-78 -4 -145 -10 -148 -13 -9 -8 -7 -364 2 -427 14 -96 23
-100 180 -92 l132 6 37 -98 38 -98 -39 -35 c-46 -41 -131 -146 -131 -161 0
-19 64 -103 125 -165 113 -113 294 -234 350 -234 25 0 115 90 142 144 8 17 17
32 18 34 1 2 15 0 29 -4 l27 -6 -35 -24 c-59 -41 -62 -104 -5 -104 47 0 96
-34 104 -73 4 -18 16 -46 26 -63 l19 -31 148 -6 c142 -6 154 -8 302 -56 85
-27 308 -97 495 -156 187 -59 430 -135 540 -170 110 -35 253 -80 319 -101
l118 -37 -6 -116 c-17 -318 -32 -705 -46 -1206 -25 -888 3 -1410 79 -1479 17
-16 83 -13 1232 51 l1214 67 70 -42 c82 -50 140 -69 253 -83 141 -18 333 11
555 84 l98 32 767 -48 c422 -26 961 -60 1199 -75 238 -14 434 -24 437 -21 7 7
32 382 46 684 20 430 30 968 30 1572 l0 602 143 45 c78 24 282 88 452 141 279
86 463 143 799 248 61 19 112 39 114 45 1 5 -52 -7 -120 -28 -68 -21 -278 -86
-468 -145 -190 -59 -401 -125 -470 -146 -69 -21 -197 -61 -285 -88 -87 -27
-163 -47 -167 -45 -4 3 -8 71 -8 152 l0 148 223 96 222 96 1204 -14 c662 -8
1205 -13 1208 -11 2 3 -58 139 -134 303 l-138 299 -1091 3 -1092 2 -155 -287
-156 -288 146 -5 c134 -5 145 -6 118 -19 -98 -44 -348 -151 -350 -149 -1 2 -5
69 -9 150 l-6 146 110 62 c61 34 110 66 110 71 0 14 -1 13 -112 -51 l-103 -59
-3 84 -3 84 -53 11 c-29 6 -108 16 -175 23 l-123 12 203 157 c112 86 285 219
384 296 l180 139 5 -171 5 -171 1060 0 1060 0 3 243 2 242 -1065 0 -1065 0 0
-58 0 -57 -404 -313 c-223 -171 -409 -312 -415 -312 -11 0 -226 218 -226 230
0 5 92 102 204 217 242 246 1244 1253 1248 1253 2 0 3 -209 3 -465 l0 -465
678 2 677 3 3 592 2 593 -680 2 -680 3 0 -114 0 -113 -736 -744 c-405 -409
-742 -744 -749 -744 -6 0 -20 10 -31 21 -63 70 -291 228 -440 304 -206 106
-408 156 -634 156 -374 -1 -715 -139 -1107 -448 -50 -39 -94 -77 -98 -83 -4
-6 -43 24 -96 72 -217 199 -397 304 -628 366 -85 23 -116 25 -276 26 -203 1
-277 -10 -455 -71 -184 -62 -333 -138 -547 -280 -97 -64 -118 -83 -150 -134
-20 -33 -39 -58 -43 -57 -21 8 -1520 1531 -1520 1544 0 22 -93 117 -188 191
-85 67 -219 143 -251 143 -10 0 -29 -15 -42 -34 -13 -19 -46 -61 -74 -93 -27
-33 -55 -68 -61 -78 -9 -17 -14 -17 -69 -4 -58 15 -60 16 -67 54 -4 22 -7 88
-7 147 -1 92 -4 109 -18 116 -26 13 -243 20 -349 11z m257 -35 l66 -7 6 -139
c3 -79 11 -146 17 -153 11 -13 129 -45 164 -45 9 0 22 13 31 30 8 16 34 51 58
78 23 26 54 63 69 81 l26 34 56 -27 c118 -58 336 -241 336 -283 0 -22 -45 -95
-106 -174 -24 -30 -44 -62 -44 -71 0 -8 23 -63 50 -122 l50 -107 75 6 c41 3
108 7 149 10 l75 6 5 -43 c27 -199 36 -295 36 -375 0 -115 0 -115 -162 -121
l-118 -4 -5 -37 c-3 -20 -17 -70 -30 -112 -14 -42 -25 -84 -25 -94 0 -9 36
-56 80 -103 44 -48 80 -94 80 -103 0 -50 -180 -249 -294 -324 l-57 -39 -89 89
-89 88 -56 -21 c-31 -12 -64 -22 -74 -22 -31 0 -38 -18 -30 -78 4 -31 12 -87
17 -125 6 -46 5 -70 -2 -76 -16 -12 -168 -40 -257 -47 -41 -4 -119 -3 -172 1
-96 7 -98 7 -113 37 -14 26 -14 40 -5 89 15 73 6 125 -25 145 -24 16 -116 44
-146 44 -9 0 -25 -18 -37 -42 -26 -54 -98 -138 -117 -138 -51 0 -235 131 -341
243 -101 107 -101 106 -54 164 21 26 60 68 86 92 l48 44 -18 46 c-9 25 -29 81
-44 125 l-26 78 -115 -7 c-135 -9 -169 -10 -176 -2 -14 13 -24 157 -22 298 l3
154 139 7 c76 4 145 9 152 12 8 3 14 20 14 38 0 18 12 60 26 93 14 33 32 79
39 102 l14 42 -43 58 c-44 59 -112 127 -137 135 -22 7 52 111 150 209 102 102
190 164 220 154 11 -3 48 -37 82 -75 33 -38 74 -73 91 -79 45 -16 88 -14 95 5
3 9 -1 68 -11 133 -25 181 -26 178 37 196 107 31 258 42 398 29z m9717 -717
l2 -577 -662 2 -663 3 -3 565 c-1 311 0 571 3 578 3 10 141 12 662 10 l658 -3
3 -578z m-7898 -699 l563 -567 -27 -42 c-26 -38 -30 -41 -63 -34 -19 3 -95 8
-168 10 l-133 4 -416 328 -416 328 0 75 c0 98 -41 437 -54 454 -9 11 -41 12
-156 5 -109 -6 -146 -5 -152 4 -4 7 -24 49 -44 94 l-37 82 60 78 c32 43 65 93
72 112 l14 33 197 -199 c108 -109 450 -453 760 -765z m8245 -168 l0 -205
-1027 -3 -1028 -2 0 203 c0 112 3 207 7 210 3 4 466 6 1027 5 l1021 -3 0 -205z
m-4008 171 c182 -40 370 -123 553 -246 112 -75 244 -185 248 -206 1 -8 -342
-362 -799 -824 -1085 -1096 -1044 -1054 -1038 -1059 3 -3 34 4 69 15 36 11
187 58 335 104 149 46 518 160 821 254 303 94 556 171 563 171 10 0 12 -23 7
-102 -3 -57 -16 -400 -27 -763 -12 -363 -23 -662 -25 -664 -2 -2 -54 4 -116
13 -250 35 -341 41 -633 41 -451 0 -823 -51 -1222 -168 -46 -14 -83 -24 -83
-23 -1 6 -101 2405 -107 2556 -4 107 -8 240 -8 295 l0 99 75 63 c294 248 617
408 925 458 120 19 338 13 462 -14z m-4639 -203 c142 -111 322 -254 402 -317
l144 -116 -119 -17 c-66 -9 -128 -17 -137 -18 -14 0 -18 -16 -24 -90 -3 -49
-9 -90 -13 -90 -3 0 -157 91 -341 203 -324 195 -339 205 -425 295 l-89 92 13
43 c7 23 20 70 29 104 l17 63 50 0 c87 1 187 18 203 34 9 9 20 16 25 16 5 0
124 -91 265 -202z m2322 158 c258 -39 503 -168 733 -387 l79 -74 33 -805 c79
-1900 88 -2130 82 -2136 -3 -3 -93 17 -199 46 -789 214 -1414 232 -1813 51
l-64 -29 -5 41 c-3 23 -7 137 -10 252 -3 116 -13 436 -22 713 -9 276 -15 505
-12 508 5 4 695 -210 1441 -448 104 -33 191 -57 195 -54 3 4 -194 208 -439
454 -1334 1343 -1233 1238 -1241 1285 -3 23 -7 70 -7 104 l-1 61 128 85 c406
272 783 384 1122 333z m-2394 -637 l336 -201 -6 -47 c-3 -25 -8 -99 -12 -163
-3 -65 -10 -118 -14 -118 -4 0 -37 13 -72 29 -251 114 -809 366 -834 377 l-32
13 103 103 c59 59 116 128 135 161 21 38 37 56 46 53 8 -3 165 -96 350 -207z
m5764 -17 c0 -8 -213 -182 -224 -182 -5 0 4 329 10 370 l6 34 104 -105 c57
-58 104 -111 104 -117z m3136 -59 l122 -263 -146 0 c-408 -1 -2423 22 -2464
28 l-47 7 88 160 c48 88 109 199 135 248 l47 87 1072 -2 1071 -3 122 -262z
m-3393 28 l-8 -184 -834 -644 c-458 -355 -834 -643 -836 -641 -1 2 376 385
839 851 692 699 841 845 844 825 1 -12 -1 -106 -5 -207z m-4393 152 l0 -47
-22 21 c-20 21 -20 23 -4 47 9 14 19 26 21 26 3 0 5 -21 5 -47z m-21 -47 c22
-23 24 -35 29 -200 3 -97 2 -176 -2 -176 -12 0 -211 162 -209 170 4 16 146
230 153 230 3 0 17 -11 29 -24z m-330 -123 c53 -42 97 -77 99 -79 2 -1 -22
-40 -52 -87 -47 -73 -55 -93 -58 -140 l-3 -55 -192 115 -193 115 6 77 c3 42 7
81 9 87 3 10 58 20 200 37 82 10 85 9 184 -70z m188 63 c5 -4 -14 -37 -68
-119 -6 -8 -179 119 -179 131 0 7 240 -5 247 -12z m-1812 -91 c51 -56 85 -85
99 -85 11 0 41 13 65 29 l44 29 41 -18 c170 -75 912 -413 918 -418 7 -7 -8
-301 -15 -309 -4 -3 -340 100 -672 207 -66 21 -235 75 -375 119 -140 44 -318
100 -395 124 l-139 44 89 16 c50 9 107 22 128 27 36 11 37 12 37 58 0 26 -7
85 -15 131 -8 47 -14 85 -12 86 6 4 113 44 119 44 3 1 41 -37 83 -84z m2560
-467 c715 -718 990 -999 935 -957 -25 20 -304 240 -620 489 -316 250 -635 501
-708 558 -72 57 -134 108 -137 112 -6 9 -19 340 -14 340 3 0 247 -244 544
-542z m4376 518 c43 -7 81 -15 85 -18 3 -3 8 -40 11 -80 l6 -75 -178 -101
c-97 -56 -181 -102 -186 -102 -5 0 -9 90 -9 201 l0 202 96 -7 c52 -4 131 -13
175 -20z m-307 -77 c3 -34 6 -121 6 -194 l0 -132 -122 -70 c-68 -39 -124 -69
-126 -68 -2 2 0 82 4 179 l7 177 106 84 c58 46 109 84 112 84 3 1 9 -27 13
-60z m-7430 -1 c5 -14 6 -37 2 -52 l-6 -26 -38 20 c-20 11 -45 20 -55 20 -24
0 -13 15 31 45 44 28 54 27 66 -7z m2685 -151 l111 -87 0 -150 0 -149 -167
100 c-93 56 -171 106 -175 113 -4 6 -8 33 -8 60 0 43 7 60 52 128 28 44 57 78
64 76 6 -2 62 -42 123 -91z m-442 -76 l172 -103 3 -139 c2 -88 -1 -139 -7
-139 -5 0 -98 40 -205 89 -191 86 -195 88 -193 117 1 16 4 91 8 167 l7 138 22
-14 c11 -7 98 -60 193 -116z m5591 -48 l-3 -147 -175 -77 c-95 -43 -175 -77
-176 -76 -1 1 -4 57 -7 124 l-6 122 172 100 c95 54 178 99 185 100 10 1 12
-32 10 -146z m-678 -34 c0 -95 -5 -168 -11 -175 -6 -7 -81 -53 -167 -102 -846
-482 -1433 -817 -1462 -834 -89 -53 -85 -50 1330 1041 96 74 204 158 240 187
36 28 67 50 68 49 2 -2 3 -77 2 -166z m-4128 -112 c106 -84 438 -346 738 -581
506 -398 591 -467 565 -454 -8 4 -1485 887 -1491 892 -5 4 -15 296 -10 296 3
0 93 -69 198 -153z m4404 -174 c-10 -10 -249 -113 -253 -109 -2 2 -1 52 3 110
l7 106 121 69 121 70 3 -121 c1 -66 1 -123 -2 -125z m-4766 114 l135 -82 3
-113 c1 -61 1 -112 -2 -112 -2 0 -66 28 -142 63 -77 35 -154 69 -171 76 l-33
13 0 140 0 139 38 -21 c20 -12 98 -58 172 -103z m5178 -117 l-3 -144 -165 -52
c-91 -29 -173 -53 -183 -53 -16 -1 -17 10 -15 124 l3 126 175 78 c96 43 179
75 183 71 4 -4 6 -71 5 -150z m-5646 61 c95 -43 185 -84 201 -91 l27 -13 0
-130 c0 -99 -3 -128 -12 -124 -7 2 -104 33 -215 68 l-203 63 0 46 c0 93 13
260 21 260 4 0 85 -35 181 -79z m4948 -85 l0 -104 -92 -39 c-51 -22 -298 -130
-548 -241 -250 -110 -563 -248 -694 -306 -131 -57 -235 -101 -230 -96 12 12
1547 889 1557 890 4 0 7 -47 7 -104z m-3585 -396 c395 -236 713 -430 708 -430
-5 0 -189 81 -409 181 -640 290 -793 359 -899 406 -55 24 -103 47 -107 51 -8
8 -23 222 -15 222 3 0 328 -193 722 -430z m3884 239 l1 -85 -136 -43 c-75 -23
-137 -41 -138 -39 -2 2 -1 51 2 110 l4 106 127 55 126 56 7 -37 c4 -20 7 -76
7 -123z m-4809 45 c167 -76 168 -76 174 -113 8 -51 7 -171 -1 -171 -5 0 -84
25 -178 54 l-170 53 -3 127 c-1 69 0 126 4 126 3 0 81 -34 174 -76z m4501
-129 l-6 -100 -215 -66 c-572 -177 -1050 -325 -1189 -370 -85 -26 -157 -46
-159 -44 -3 2 6 9 19 15 251 107 1329 581 1489 653 30 14 58 22 61 19 3 -4 3
-52 0 -107z m707 -1105 c-4 -338 -12 -721 -18 -850 -14 -340 -41 -744 -48
-752 -4 -4 -70 -3 -147 3 -132 8 -909 57 -1828 114 -360 22 -411 24 -441 11
-62 -26 -256 -78 -345 -92 -111 -18 -260 -18 -339 1 -67 16 -148 53 -198 92
l-32 24 -998 -56 c-550 -31 -1097 -61 -1217 -68 -167 -9 -221 -10 -228 -1 -16
19 -29 72 -46 184 -21 141 -29 976 -14 1437 14 442 43 1127 47 1132 4 5 405
-117 423 -128 7 -5 15 -333 26 -1016 9 -556 18 -1055 21 -1111 l6 -101 136
-13 c199 -18 839 -25 1082 -11 241 14 461 33 692 62 l167 21 63 -25 c123 -49
184 -60 328 -60 116 0 147 4 223 27 49 14 105 35 125 45 36 18 40 18 152 0
373 -61 633 -83 1005 -83 382 0 591 20 890 86 77 17 151 31 165 32 17 1 24 6
21 16 -6 22 -40 2164 -34 2170 2 3 84 30 181 61 l177 55 6 -295 c3 -163 2
-573 -3 -911z m-4228 791 c366 -165 661 -301 656 -301 -10 0 -228 68 -856 267
-217 69 -431 136 -474 149 -44 13 -82 27 -85 30 -3 3 -8 50 -9 105 l-4 99 54
-24 c29 -13 352 -160 718 -325z m3830 102 c0 -104 2 -271 5 -373 9 -331 26
-1522 22 -1527 -3 -2 -73 85 -157 194 -84 109 -163 209 -176 223 l-23 25 14
395 c8 217 19 568 26 780 8 264 15 386 23 390 25 10 242 78 254 79 9 1 12 -43
12 -186z m-4796 86 c88 -28 162 -52 164 -54 4 -4 53 -1477 50 -1512 -2 -26
-39 -72 -182 -232 -99 -111 -181 -199 -183 -197 -4 3 -33 1646 -33 1874 0 122
3 172 11 172 7 0 84 -23 173 -51z m1261 -1479 c284 -27 603 -88 910 -176 88
-25 162 -47 163 -49 2 -2 -11 -103 -29 -224 l-33 -221 -46 0 c-56 0 -190 32
-268 63 l-58 24 -139 -18 c-588 -74 -1242 -96 -1730 -59 -188 14 -185 13 -185
53 1 27 29 63 199 251 142 158 205 220 222 222 13 1 63 18 112 39 98 41 261
80 387 93 121 13 366 14 495 2z m2840 -45 c233 -24 341 -45 363 -69 32 -34
333 -428 338 -441 3 -7 -7 -15 -23 -18 -15 -3 -71 -15 -124 -26 -265 -57 -529
-81 -868 -81 -330 0 -590 21 -952 76 l-166 26 -61 -26 c-75 -32 -213 -66 -265
-66 -37 0 -38 1 -33 28 3 15 17 106 31 202 14 96 28 184 30 196 4 17 26 27
137 57 338 93 663 145 998 161 128 5 457 -5 595 -19z"/>
<path d="M4095 8586 c-147 -29 -266 -93 -370 -201 -144 -149 -214 -360 -185
-558 36 -251 169 -432 395 -538 97 -45 172 -61 285 -61 118 0 189 16 300 69
81 39 108 59 181 132 87 88 153 194 178 286 83 313 -40 626 -310 786 -134 80
-324 114 -474 85z m333 -59 c103 -36 174 -81 251 -158 122 -122 179 -252 188
-430 l6 -107 -154 -6 c-349 -13 -489 -15 -489 -7 0 17 57 57 165 116 163 90
239 173 260 286 5 30 2 41 -18 65 -22 25 -31 28 -78 27 -60 -2 -162 -35 -232
-77 -54 -31 -88 -73 -113 -136 -9 -25 -21 -49 -25 -54 -5 -6 -53 12 -116 42
-202 95 -307 116 -338 68 -14 -21 -14 -28 -1 -65 33 -98 96 -160 229 -228 l92
-47 -95 -8 c-52 -5 -160 -7 -240 -6 l-145 3 -3 92 c-9 296 177 551 468 640
107 33 281 28 388 -10z m432 -734 c0 -37 -58 -181 -93 -235 -82 -123 -197
-213 -337 -262 -78 -28 -96 -31 -210 -31 -111 1 -134 4 -205 28 -198 70 -344
214 -411 405 -13 37 -20 70 -16 73 12 11 472 17 472 6 0 -5 -5 -26 -11 -47
l-11 -37 -78 -6 c-88 -6 -120 -19 -120 -48 0 -32 74 -181 103 -207 19 -18 45
-26 103 -34 55 -7 95 -19 130 -39 87 -49 146 -35 282 65 119 88 132 164 43
254 -44 44 -88 43 -175 -3 -82 -43 -106 -45 -107 -7 -2 36 2 116 6 120 2 2
126 7 277 11 150 4 292 9 316 9 34 2 42 -1 42 -15z"/>
<path d="M12700 8410 l0 -540 620 0 620 0 0 540 0 540 -620 0 -620 0 0 -540z
m1215 0 l0 -520 -598 -3 -597 -2 0 525 0 525 597 -2 598 -3 0 -520z"/>
<path d="M13290 7550 l0 -160 495 0 495 0 0 160 0 160 -495 0 -495 0 0 -160z
m970 0 l0 -140 -475 0 -475 0 0 140 0 140 475 0 475 0 0 -140z"/>
<path d="M13370 7525 l0 -65 419 0 419 0 4 61 c1 33 1 63 -1 65 -2 2 -193 4
-423 4 l-418 0 0 -65z m830 0 l0 -45 -405 0 -405 0 0 45 0 45 405 0 405 0 0
-45z"/>
<path d="M12194 6982 l-111 -207 241 -6 c416 -11 2176 -21 2176 -13 0 4 -39
104 -87 221 l-88 213 -1010 0 -1010 0 -111 -208z"/>
<path d="M5239 15625 c-20 -7 -72 -33 -115 -58 -44 -25 -105 -58 -136 -73 -72
-35 -76 -53 -10 -46 34 3 51 0 60 -10 21 -26 262 -479 262 -493 0 -8 -4 -15
-10 -15 -5 0 -16 -13 -25 -30 -9 -16 -14 -30 -11 -30 2 0 46 24 98 53 157 90
167 99 98 90 -24 -4 -46 -1 -55 7 -22 18 -105 166 -111 200 -6 30 -6 30 38 30
34 0 75 -15 178 -65 85 -41 146 -65 168 -65 33 0 152 62 152 78 0 4 -35 8 -77
8 -75 0 -83 2 -192 57 -63 31 -120 57 -127 57 -20 0 -18 4 20 57 44 62 49 82
36 135 -27 106 -130 154 -241 113z m105 -95 c47 -56 44 -161 -7 -207 -61 -56
-96 -56 -123 0 -12 23 -38 73 -58 111 -20 38 -35 74 -33 80 6 19 89 45 144 45
45 1 54 -3 77 -29z"/>
<path d="M12918 15420 c-40 -28 -147 -105 -238 -171 -202 -147 -231 -163 -278
-154 -35 7 -35 6 -20 -17 15 -24 145 -105 153 -96 3 3 -2 21 -10 41 -8 20 -15
39 -15 41 0 3 30 28 66 55 l66 50 57 -36 c31 -20 80 -50 109 -66 57 -31 57
-31 40 -126 -15 -85 -21 -92 -72 -85 l-41 5 33 -28 c38 -32 194 -124 200 -118
2 2 -6 22 -19 44 l-22 40 38 238 c70 440 69 433 40 433 -7 0 -46 -23 -87 -50z
m-8 -102 c0 -44 -32 -197 -45 -214 -12 -17 -14 -17 -41 1 -16 11 -52 33 -81
51 l-52 31 22 21 c29 28 179 132 189 132 5 0 8 -10 8 -22z"/>
<path d="M4590 15224 c-215 -138 -215 -138 -206 -153 4 -6 17 -4 37 7 l30 17
50 -54 c55 -59 220 -304 264 -390 l27 -54 -21 -28 c-12 -15 -21 -31 -21 -34 0
-14 310 187 389 253 l34 29 -17 76 c-12 52 -22 77 -32 77 -10 0 -14 -13 -14
-47 0 -91 -13 -114 -92 -170 -102 -70 -114 -76 -138 -63 -11 6 -52 58 -90 115
l-70 105 37 19 c21 11 53 31 72 45 50 38 87 43 123 16 16 -12 32 -20 34 -17
16 15 -101 187 -126 187 -5 0 -4 -16 1 -36 14 -48 -10 -88 -81 -136 -72 -48
-89 -52 -100 -23 -5 12 -31 54 -58 91 -56 77 -72 114 -49 114 7 0 39 18 70 40
100 72 155 85 200 50 33 -26 40 -25 32 3 -11 36 -55 87 -73 86 -9 0 -105 -57
-212 -125z"/>
<path d="M13400 15226 c0 -3 9 -21 21 -40 l21 -36 -151 -202 c-205 -276 -193
-264 -243 -249 -22 7 -42 10 -45 8 -9 -10 380 -317 402 -317 20 0 150 108 141
118 -2 1 -22 -5 -46 -13 -73 -26 -119 -20 -186 23 -33 21 -72 54 -87 72 -34
40 -31 63 20 135 55 77 227 286 265 322 l33 32 40 -19 c83 -40 72 -22 -49 74
-87 70 -136 102 -136 92z"/>
<path d="M4233 14991 c-26 -21 -59 -51 -73 -66 l-25 -28 37 6 c26 4 42 1 52
-8 26 -27 158 -427 144 -440 -7 -7 -320 140 -380 179 -52 34 -56 44 -32 82 9
13 15 27 12 29 -7 8 -95 -54 -156 -109 l-55 -51 69 -6 c64 -5 85 -14 299 -127
216 -113 340 -171 350 -161 2 3 -39 137 -91 299 -95 293 -107 345 -91 408 11
42 0 41 -60 -7z"/>
<path d="M13910 14835 c0 -4 7 -20 17 -35 15 -27 15 -30 -10 -71 -14 -24 -56
-80 -94 -125 -263 -312 -242 -292 -289 -275 -20 7 -37 11 -39 9 -1 -1 83 -78
187 -170 l189 -166 65 40 c98 61 100 74 8 50 -58 -15 -62 -15 -106 7 -25 12
-76 49 -112 82 l-66 61 22 31 c12 18 45 59 73 93 27 34 55 69 60 79 10 16 14
16 35 5 46 -24 101 -72 116 -103 11 -20 15 -45 11 -74 -3 -26 0 -43 6 -43 18
0 137 150 137 172 0 4 -15 -1 -32 -12 -18 -11 -40 -20 -49 -20 -9 0 -44 21
-77 48 -33 26 -67 52 -77 57 -15 9 -13 16 23 70 23 33 60 79 84 102 l43 41 72
-54 c40 -31 82 -71 94 -90 21 -34 21 -44 3 -118 -6 -26 -5 -27 14 -17 19 10
82 91 82 105 0 5 -213 188 -315 272 -57 46 -75 58 -75 49z"/>
<path d="M3664 14488 c-50 -40 -164 -150 -164 -159 0 -4 20 1 44 9 l44 16 53
-48 c73 -65 233 -238 286 -310 47 -63 51 -84 27 -121 -15 -23 -15 -25 2 -25
10 0 59 41 108 90 86 88 106 120 51 84 -26 -17 -28 -17 -61 1 -18 10 -51 39
-73 65 -21 25 -92 102 -156 170 -65 68 -124 139 -133 158 -15 31 -15 36 1 64
10 17 16 32 14 34 -2 2 -21 -11 -43 -28z"/>
<path d="M14413 14331 c-37 -27 -77 -71 -70 -77 2 -2 21 3 44 11 67 23 103 7
202 -93 l86 -86 -35 -8 c-19 -4 -96 -17 -170 -28 -228 -36 -515 -91 -524 -100
-5 -5 -1 -21 10 -38 21 -33 347 -352 360 -352 10 0 127 81 136 94 12 18 2 18
-55 1 -49 -14 -59 -14 -89 -1 -66 29 -245 213 -225 232 8 8 108 24 209 34 53
5 160 23 236 39 76 16 167 33 201 37 44 5 61 11 59 20 -2 10 -326 344 -333
344 -1 0 -20 -13 -42 -29z"/>
<path d="M3364 14218 c-27 -26 -60 -65 -72 -87 -25 -43 -17 -55 13 -21 10 11
24 20 32 20 28 0 79 -34 154 -104 42 -39 102 -94 135 -123 32 -29 56 -55 53
-58 -3 -3 -147 2 -320 11 -261 14 -314 14 -318 3 -2 -8 -26 -37 -53 -65 -26
-28 -48 -54 -48 -57 0 -13 38 -7 50 8 8 9 30 15 57 15 39 0 54 -7 107 -49 33
-27 72 -61 86 -76 14 -15 66 -61 115 -102 118 -98 127 -112 110 -169 -7 -24
-10 -44 -6 -44 11 0 113 108 136 143 23 36 13 45 -21 18 -15 -11 -34 -21 -44
-21 -9 0 -50 29 -91 65 -41 36 -106 93 -146 126 -40 34 -80 72 -89 86 l-16 26
238 -7 c132 -3 283 -9 337 -12 58 -4 97 -2 97 3 0 5 -103 103 -230 216 -126
114 -230 214 -230 223 0 8 5 24 11 35 22 43 0 41 -47 -3z"/>
<path d="M2869 13633 c-69 -79 -123 -188 -66 -135 26 24 57 28 90 10 12 -6 87
-60 167 -119 168 -124 200 -163 200 -244 0 -60 -36 -126 -94 -170 -42 -32 -83
-35 -142 -10 -38 15 -190 120 -300 207 -62 48 -101 107 -76 116 13 4 17 42 4
42 -10 0 -124 -154 -147 -199 l-17 -34 30 22 c57 40 80 31 244 -100 134 -107
211 -144 299 -144 56 0 72 4 108 29 84 58 141 164 141 260 0 94 -47 147 -269
301 -131 92 -146 109 -138 165 3 22 4 40 2 40 -2 0 -18 -17 -36 -37z"/>
<path d="M14990 13636 c-466 -143 -452 -140 -542 -140 l-86 -1 16 -28 c10 -16
38 -52 64 -80 l48 -52 -6 40 c-5 32 -2 44 13 56 26 23 79 39 129 39 40 0 45
-3 63 -37 10 -21 37 -53 60 -71 51 -41 54 -75 14 -152 -35 -67 -53 -78 -93
-63 -29 11 -31 10 -24 -10 8 -25 143 -187 156 -187 5 0 6 16 2 35 -10 52 12
123 68 221 222 389 248 445 208 451 -8 1 -49 -8 -90 -21z m-40 -72 c0 -4 -24
-54 -52 -110 -35 -68 -59 -104 -69 -104 -23 0 -129 127 -129 154 0 3 15 6 33
6 17 1 70 14 117 29 95 32 100 34 100 25z"/>
<path d="M15497 13060 c3 -26 0 -41 -14 -57 -19 -24 -329 -207 -428 -254 l-59
-29 -33 32 c-44 43 -42 21 5 -72 132 -257 243 -360 397 -368 123 -7 231 51
306 162 45 67 57 128 41 206 -15 70 -140 323 -186 375 l-35 40 6 -35z m90
-198 c44 -65 55 -97 54 -164 0 -106 -65 -204 -169 -255 -50 -24 -69 -28 -148
-28 -83 0 -94 2 -140 30 -57 35 -103 104 -111 164 -4 32 -2 41 9 41 8 0 113
58 234 130 120 71 224 129 229 129 6 0 24 -21 42 -47z"/>
<path d="M2140 12534 c0 -12 41 -62 236 -296 88 -106 165 -202 171 -213 6 -11
14 -40 18 -64 6 -36 9 -41 21 -30 18 19 95 171 89 177 -3 3 -15 -4 -28 -16
-35 -33 -59 -27 -111 28 -57 60 -58 82 -11 170 19 36 43 80 52 98 l17 32 75
-6 c85 -7 103 -18 105 -63 1 -38 9 -39 34 -3 24 33 104 192 97 192 -2 0 -28
-9 -57 -21 -57 -23 -134 -23 -343 0 -144 16 -365 25 -365 15z m336 -110 l71
-6 -38 -66 c-21 -36 -41 -78 -44 -94 -4 -15 -10 -28 -15 -28 -19 0 -150 175
-150 201 0 8 16 10 53 5 28 -3 84 -8 123 -12z"/>
<path d="M15875 12400 c12 -19 13 -69 2 -78 -19 -15 -355 -172 -443 -207 l-81
-32 -27 31 -27 31 6 -30 c6 -29 26 -76 138 -320 61 -134 52 -129 155 -99 l55
16 -51 17 c-28 10 -66 29 -85 44 -43 33 -85 117 -89 176 l-3 44 95 48 c53 27
110 51 126 55 30 6 32 4 42 -38 6 -23 20 -61 32 -83 11 -21 20 -43 20 -48 0
-5 -14 -29 -31 -54 -31 -44 -31 -45 -8 -38 69 20 199 81 199 93 0 11 -9 13
-39 8 -22 -3 -47 -3 -56 1 -20 7 -98 170 -89 185 7 11 172 91 212 103 14 4 22
2 22 -6 0 -6 16 -47 36 -91 51 -114 54 -146 15 -190 -17 -20 -31 -38 -31 -41
0 -8 48 7 93 29 49 24 49 25 -49 246 -76 169 -115 238 -135 238 -6 0 -7 -4 -4
-10z"/>
<path d="M1962 12148 c-14 -19 -98 -189 -107 -218 l-7 -25 29 28 c36 34 57 34
141 1 101 -40 393 -182 415 -201 15 -14 17 -26 13 -63 l-6 -45 25 30 c25 30
109 214 102 222 -3 2 -19 -8 -36 -23 l-32 -26 -67 30 c-60 28 -225 103 -399
183 -54 24 -63 32 -63 54 0 15 5 35 10 46 12 21 -2 26 -18 7z"/>
<path d="M1783 11742 c26 -28 20 -55 -17 -91 -72 -70 -103 -206 -71 -317 14
-50 27 -69 83 -125 39 -38 92 -77 127 -95 52 -25 71 -29 145 -29 89 0 90 1
202 68 106 63 154 261 93 384 -25 50 -51 81 -60 71 -2 -2 9 -38 25 -79 35 -88
37 -128 9 -189 -25 -56 -62 -95 -114 -123 -55 -29 -168 -28 -247 2 -157 60
-237 155 -225 267 3 32 16 73 32 99 28 48 95 95 137 95 44 0 89 12 85 23 -4
13 -151 56 -191 57 -28 0 -28 -1 -13 -18z"/>
<path d="M16270 11505 c0 -44 0 -44 -47 -59 -27 -8 -144 -44 -261 -80 -118
-36 -222 -66 -232 -66 -10 0 -32 14 -49 31 -25 24 -31 27 -31 13 0 -32 42
-169 56 -184 12 -12 14 -8 14 33 l0 46 103 32 c56 17 143 43 192 59 106 32
155 42 155 32 0 -12 -72 -78 -205 -189 -66 -55 -140 -122 -164 -148 -40 -44
-43 -49 -25 -56 21 -8 390 -65 499 -77 l70 -8 -145 -47 c-187 -60 -334 -99
-338 -89 -1 4 -12 23 -24 42 -35 55 -33 14 5 -124 33 -125 57 -160 57 -87 0
55 21 74 106 95 38 9 141 39 229 66 228 69 211 67 251 23 19 -20 34 -32 34
-27 0 18 -41 169 -48 176 -4 4 -125 24 -269 45 -153 22 -263 42 -263 48 0 18
323 310 371 335 19 11 20 17 14 68 -6 54 -37 142 -49 142 -3 0 -6 -20 -6 -45z"/>
<path d="M1551 11058 c-6 -29 -18 -79 -26 -110 -14 -62 -5 -77 17 -28 12 28
17 30 63 30 27 0 115 -16 195 -36 80 -19 158 -38 175 -42 l29 -8 -35 -22 c-20
-12 -133 -66 -253 -121 -119 -55 -232 -111 -251 -125 -28 -22 -36 -37 -49 -95
-9 -39 -16 -76 -16 -82 0 -16 58 39 65 62 3 9 12 19 19 22 7 3 94 -12 192 -34
99 -21 212 -46 252 -55 86 -18 112 -39 112 -89 0 -37 15 -47 24 -17 3 9 12 51
21 92 9 41 18 83 21 93 10 32 -16 17 -33 -19 -17 -35 -19 -36 -63 -30 -25 3
-101 22 -170 41 -69 20 -149 38 -177 42 -81 9 -72 32 30 72 115 47 390 183
462 228 l60 37 -40 9 c-192 41 -562 141 -572 155 -7 8 -13 31 -13 49 0 53 -25
41 -39 -19z"/>
<path d="M16527 10606 c-4 -10 -7 -26 -7 -37 0 -33 -42 -48 -266 -93 -293 -60
-322 -63 -330 -39 -21 67 -43 67 -33 1 7 -52 49 -272 72 -378 14 -64 28 -74
125 -87 68 -10 79 -1 30 25 -55 30 -106 82 -122 125 -20 54 -39 178 -29 188
11 11 203 49 246 49 l35 0 6 -57 c4 -32 10 -79 13 -105 5 -44 4 -47 -24 -61
-36 -19 -62 -47 -43 -47 38 0 197 34 208 45 11 10 7 14 -21 19 -51 10 -69 37
-88 134 -20 100 -21 98 61 108 30 4 74 12 98 19 71 22 76 17 95 -98 26 -155
25 -165 -23 -185 -57 -24 -54 -46 7 -37 73 11 93 21 93 49 0 29 -77 426 -89
457 -7 20 -8 20 -14 5z"/>
<path d="M16640 10395 c0 -5 4 -15 8 -21 9 -15 163 -96 169 -90 3 3 2 27 -2
54 l-6 49 -85 9 c-57 6 -84 6 -84 -1z"/>
<path d="M1366 10218 c-4 -40 -18 -145 -32 -232 -30 -195 -29 -217 8 -159 25
37 31 41 60 38 365 -48 525 -72 540 -81 4 -3 8 -26 8 -50 0 -31 4 -44 12 -42
12 4 64 337 70 451 l3 67 -68 32 c-37 17 -70 28 -74 24 -4 -3 13 -26 37 -51
52 -52 59 -95 40 -229 l-12 -86 -32 0 c-38 1 -246 26 -250 31 -7 8 29 205 38
211 6 4 28 8 49 8 42 0 53 26 15 35 -107 23 -198 31 -198 18 0 -5 16 -18 35
-31 39 -25 41 -35 28 -166 l-6 -69 -92 6 c-161 11 -175 25 -152 161 17 93 37
136 65 136 10 0 29 8 42 17 l25 18 -40 7 c-22 4 -56 7 -76 7 l-36 1 -7 -72z"/>
<path d="M16630 9943 c-1 -62 -76 -153 -205 -248 l-78 -58 -46 23 c-74 36
-162 103 -234 179 l-67 71 1 -47 c1 -27 4 -75 8 -108 7 -60 7 -60 21 -32 11
24 19 28 41 23 22 -4 130 -70 213 -129 18 -13 14 -18 -73 -90 -69 -57 -100
-77 -122 -77 -22 0 -29 5 -29 19 0 10 -7 25 -17 32 -15 13 -16 6 -10 -95 4
-60 7 -129 7 -153 0 -58 24 -58 39 1 12 51 25 64 195 199 l119 94 92 -59 c84
-53 144 -106 205 -178 l21 -25 -7 115 c-3 63 -8 118 -11 123 -9 15 -23 6 -23
-14 0 -28 -18 -59 -34 -59 -7 0 -50 24 -95 54 -45 30 -86 56 -92 58 -21 7 5
38 74 91 103 77 96 75 129 36 l29 -34 -6 120 c-8 150 -14 185 -31 185 -8 0
-14 -8 -14 -17z"/>
<path d="M1780 9630 c6 -11 29 -29 51 -41 59 -29 70 -65 67 -202 l-3 -112
-231 -3 c-127 -1 -255 1 -285 5 -50 8 -55 11 -66 43 -10 31 -12 32 -13 10 0
-14 -7 -73 -14 -132 -6 -60 -9 -108 -6 -108 12 0 30 25 30 42 0 33 55 51 139
44 42 -4 160 -9 262 -12 l186 -6 20 -42 20 -41 7 160 c4 88 8 204 9 258 l2 98
-90 30 c-49 16 -91 29 -93 29 -1 0 2 -9 8 -20z"/>
<path d="M16035 9067 c-4 -68 -6 -132 -4 -142 6 -30 29 -30 29 -1 0 14 9 35
20 46 19 19 33 20 288 20 226 0 271 -2 290 -16 l22 -15 0 77 c0 70 -1 75 -16
63 -11 -9 -42 -13 -88 -13 -455 4 -486 7 -506 44 -6 10 -10 28 -10 39 0 12 -4
21 -9 21 -5 0 -12 -55 -16 -123z"/>
<path d="M1770 9021 c0 -6 23 -28 51 -48 65 -47 81 -83 87 -204 4 -87 3 -98
-14 -107 -11 -5 -77 -12 -147 -14 l-128 -4 3 110 3 110 39 11 c38 11 56 28 39
38 -4 3 -55 -1 -113 -7 l-105 -12 42 -27 c35 -22 43 -33 48 -69 3 -24 5 -70 3
-103 l-3 -60 -127 -3 -128 -3 1 98 c0 54 4 118 7 143 6 42 9 45 39 48 17 2 34
10 37 19 4 9 5 17 4 18 -2 1 -34 0 -71 -3 -56 -4 -67 -7 -63 -21 3 -9 12 -108
22 -221 9 -113 19 -207 21 -209 2 -3 9 2 16 11 10 12 61 18 278 28 147 6 276
9 288 5 12 -3 30 -23 42 -43 l20 -37 -5 105 c-3 58 -8 176 -12 263 -7 153 -7
157 -29 157 -20 0 -88 18 -127 35 -11 4 -18 3 -18 -4z"/>
<path d="M16196 8786 c-85 -36 -126 -73 -166 -151 -30 -59 -35 -77 -35 -139 0
-57 5 -82 27 -126 26 -53 112 -149 123 -138 3 3 -11 27 -31 54 -82 106 -92
180 -39 284 60 119 239 163 405 101 114 -43 170 -116 170 -221 0 -105 -51
-170 -157 -201 -83 -24 -39 -49 85 -49 49 0 92 3 95 7 4 4 -4 18 -18 33 l-25
26 20 42 c51 104 60 215 25 298 -21 51 -81 110 -158 155 -69 40 -76 43 -167
46 -84 3 -102 1 -154 -21z"/>
<path d="M1830 8370 c84 -67 102 -86 122 -123 29 -57 29 -147 0 -203 -23 -44
-74 -94 -123 -120 -52 -26 -167 -46 -228 -38 -151 18 -230 97 -231 230 0 76
36 139 104 179 49 29 61 51 24 42 -13 -2 -65 -13 -116 -23 l-94 -18 32 -26 32
-26 -16 -54 c-34 -114 -15 -207 60 -289 71 -80 177 -122 305 -122 141 0 242
61 297 179 35 75 38 202 6 273 -29 61 -81 118 -129 140 -54 25 -77 24 -45 -1z"/>
<path d="M16111 8099 c-66 -26 -135 -92 -163 -157 -29 -64 -35 -182 -14 -253
46 -157 230 -262 402 -230 55 10 114 38 114 53 0 4 7 8 16 8 24 0 112 99 130
147 24 61 15 192 -16 253 -33 64 -109 136 -177 167 -81 38 -213 43 -292 12z
m227 -114 c112 -26 178 -69 213 -137 36 -70 14 -179 -45 -226 -48 -37 -92 -45
-210 -39 -180 10 -276 50 -316 131 -51 105 2 233 112 273 46 16 172 15 246 -2z"/>
<path d="M2020 7732 c0 -50 -27 -90 -155 -226 l-100 -106 -50 14 c-73 22 -203
91 -258 138 -27 22 -50 39 -51 37 -2 -2 11 -56 29 -119 30 -108 45 -126 45
-53 0 24 2 24 43 18 45 -8 207 -74 207 -85 0 -4 -34 -44 -76 -89 l-77 -82 -33
32 c-19 18 -36 30 -39 27 -3 -3 11 -73 32 -156 30 -123 40 -149 51 -140 7 7
11 21 8 33 -9 35 36 111 132 225 76 89 93 105 116 103 15 -1 83 -28 152 -59
99 -46 136 -68 175 -108 27 -27 51 -47 54 -44 10 9 -26 150 -48 193 l-21 40
-6 -35 c-3 -23 -11 -36 -23 -38 -18 -4 -257 88 -257 98 0 4 28 38 63 76 34 38
72 82 85 98 l23 29 29 -21 c16 -12 33 -22 38 -22 10 0 -5 80 -35 190 -13 44
-24 66 -36 68 -14 3 -17 -4 -17 -36z"/>
<path d="M2175 7006 c-45 -10 -55 -14 -40 -20 87 -32 134 -82 160 -169 24 -79
20 -104 -17 -127 -33 -20 -217 -85 -222 -79 -13 16 -46 138 -46 172 0 34 6 48
30 71 17 16 29 31 26 33 -7 8 -144 -36 -191 -60 l-40 -21 44 -8 c71 -12 108
-63 126 -169 6 -42 17 -35 -129 -85 -55 -19 -102 -32 -104 -29 -12 11 -71 202
-72 227 0 16 12 41 30 61 30 35 42 69 18 50 -7 -6 -35 -18 -61 -28 -26 -10
-50 -21 -52 -25 -5 -9 125 -399 151 -454 l19 -39 5 54 5 54 165 58 c205 73
346 117 376 117 14 0 25 -8 29 -20 6 -20 45 -48 45 -33 0 4 -38 114 -83 243
-53 149 -89 236 -98 237 -8 0 -41 -5 -74 -11z"/>
<path d="M13901 4137 c-9 -27 -21 -39 -51 -51 -143 -57 -194 -212 -102 -309
62 -65 136 -73 278 -30 124 37 160 39 214 11 44 -23 45 -24 42 -68 -4 -59 -39
-121 -82 -143 -45 -23 -121 -19 -180 11 -48 24 -55 23 -46 -6 9 -26 120 -132
139 -132 8 0 18 11 21 25 4 17 32 42 91 79 103 67 119 93 120 193 0 81 -16
113 -76 148 -47 28 -154 25 -298 -9 -135 -31 -162 -32 -184 -8 -22 24 -22 93
-2 133 35 67 135 90 216 48 76 -38 73 -17 -10 65 l-79 78 -11 -35z"/>
<path d="M13480 3736 c-61 -16 -109 -47 -160 -102 -62 -68 -84 -124 -84 -215
1 -189 149 -345 341 -357 107 -7 156 10 224 77 65 66 88 120 96 232 4 57 1 89
-12 128 -35 107 -144 206 -260 236 -69 18 -85 18 -145 1z m99 -82 c172 -86
298 -326 233 -444 -38 -69 -141 -101 -234 -74 -108 33 -252 215 -266 339 -8
75 49 172 118 198 37 14 99 6 149 -19z"/>
<path d="M4159 3684 c12 -15 21 -35 21 -45 0 -37 -340 -449 -371 -449 -11 0
-31 7 -44 16 -44 29 -28 -5 29 -60 47 -46 156 -124 156 -111 0 2 -8 20 -17 40
-15 32 -15 38 -1 68 16 34 202 266 292 364 52 58 60 60 102 38 43 -22 42 -9
-2 36 -36 38 -163 129 -179 129 -3 0 3 -12 14 -26z"/>
<path d="M4389 3467 c-30 -25 -85 -97 -75 -97 4 0 24 9 46 20 59 30 100 26
156 -15 27 -20 69 -49 93 -65 l43 -29 -33 -13 c-135 -55 -553 -220 -591 -234
-27 -9 -48 -20 -48 -25 0 -21 370 -288 420 -304 19 -6 34 4 84 54 60 60 60 61
26 50 -19 -7 -44 -18 -55 -26 -40 -27 -84 -13 -180 55 -97 69 -155 115 -155
122 0 5 15 12 33 15 17 4 122 41 232 82 286 108 364 133 406 133 88 0 78 -57
-46 -261 -131 -215 -146 -267 -106 -355 34 -74 155 -158 246 -171 36 -4 55 -1
100 22 73 35 131 105 241 291 95 159 84 151 167 128 26 -8 21 23 -5 32 -13 4
-52 24 -87 45 -84 51 -98 51 -69 0 29 -50 25 -61 -79 -228 -134 -214 -182
-254 -282 -232 -58 13 -104 42 -137 85 -52 67 -25 147 131 392 42 66 83 126
91 133 11 9 23 9 54 -4 32 -12 40 -13 40 -2 0 16 -229 155 -257 155 -11 0 -24
10 -31 24 -6 14 -46 48 -89 77 -43 29 -114 79 -157 111 -44 32 -84 58 -90 58
-6 0 -23 -10 -37 -23z"/>
<path d="M12897 3296 c-88 -36 -190 -101 -249 -157 -30 -28 -44 -48 -33 -44
72 23 61 33 211 -182 76 -109 144 -207 151 -218 18 -27 16 -76 -3 -103 -9 -13
-14 -26 -10 -29 9 -9 211 116 228 141 12 18 -7 18 -48 1 -20 -8 -38 -14 -39
-13 -1 2 -27 37 -57 79 -57 77 -88 130 -88 148 0 30 70 16 232 -44 152 -57
179 -58 252 -3 31 23 56 44 56 48 0 3 -37 4 -83 2 -79 -4 -87 -2 -177 36 -53
22 -108 44 -123 47 -15 4 -27 8 -27 9 0 0 14 28 30 60 44 85 39 127 -18 189
-23 24 -103 57 -136 57 -6 0 -37 -11 -69 -24z m74 -71 c68 -36 91 -139 46
-206 -25 -38 -98 -80 -105 -60 -2 6 -28 48 -58 93 -63 96 -70 114 -52 135 41
50 114 66 169 38z"/>
<path d="M5217 3165 c-20 -19 -41 -35 -47 -35 -10 0 -34 -39 -28 -46 4 -3 195
55 207 63 3 2 -6 14 -19 28 -33 35 -68 32 -113 -10z"/>
<path d="M12395 2994 c-117 -28 -219 -122 -252 -233 -32 -112 20 -297 104
-372 129 -112 327 -113 456 0 52 46 89 127 94 209 11 154 -92 319 -231 371
-55 20 -138 32 -171 25z m112 -90 c81 -47 158 -163 189 -286 41 -157 -39 -267
-184 -256 -77 5 -137 47 -202 140 -81 115 -116 235 -91 310 16 49 71 98 128
114 59 16 105 10 160 -22z"/>
<path d="M11940 2745 l-75 -34 -6 -113 c-4 -62 -7 -184 -8 -270 0 -92 -5 -158
-10 -158 -14 0 -127 94 -268 223 -65 60 -125 112 -134 117 -10 6 -33 0 -70
-17 -30 -14 -67 -28 -83 -32 -51 -11 -43 -31 12 -31 29 0 54 -5 61 -13 12 -15
114 -236 167 -363 19 -45 37 -102 40 -127 6 -43 5 -46 -19 -52 -26 -7 -46 -35
-24 -35 7 0 48 16 92 35 44 19 88 35 98 35 9 0 17 7 17 15 0 12 -8 14 -37 9
-31 -5 -42 -2 -60 18 -22 23 -188 406 -180 414 2 2 59 -46 127 -108 163 -150
250 -227 278 -246 44 -29 47 -12 52 286 4 214 8 272 16 257 20 -34 115 -256
146 -340 l29 -79 -31 -29 c-48 -45 -36 -48 43 -13 39 18 100 43 135 56 34 13
61 28 59 34 -3 6 -10 10 -17 8 -7 -1 -28 -3 -47 -4 -43 -2 -61 19 -99 112 -14
36 -55 131 -90 211 -69 157 -78 204 -44 234 20 18 26 36 13 34 -5 0 -42 -15
-83 -34z"/>
<path d="M5500 2757 c-110 -26 -196 -88 -245 -179 -26 -47 -30 -65 -33 -156
-4 -95 -2 -106 23 -158 33 -66 112 -134 187 -158 92 -29 217 -17 261 27 30 30
6 33 -55 7 -143 -62 -305 35 -316 189 -10 142 98 324 221 370 75 28 172 5 229
-56 37 -39 48 -73 48 -150 0 -64 0 -66 19 -49 22 20 56 95 69 154 l10 41 -29
-14 c-40 -21 -47 -19 -63 18 -39 94 -188 146 -326 114z"/>
<path d="M6209 2476 c-19 -13 -66 -59 -103 -102 -38 -44 -131 -143 -206 -221
-127 -132 -141 -143 -174 -143 -37 0 -46 -10 -23 -27 13 -11 153 -63 168 -63
18 0 8 28 -12 33 -19 5 -21 11 -16 44 5 28 18 49 53 81 25 23 52 42 59 42 25
0 150 -42 181 -61 45 -27 56 -61 47 -144 -8 -67 -9 -70 -35 -73 -16 -2 -28 -7
-28 -10 0 -8 212 -83 217 -78 2 2 -10 29 -26 62 l-30 59 -9 303 c-5 167 -14
308 -19 313 -5 5 -23 -1 -44 -15z m-29 -262 c0 -97 -3 -125 -12 -121 -7 2 -52
17 -100 32 l-87 29 32 43 c41 58 132 143 151 143 14 0 16 -19 16 -126z"/>
<path d="M6565 2361 c4 -7 18 -16 31 -21 44 -17 34 -72 -88 -452 -22 -71 -45
-129 -52 -130 -6 0 -15 -2 -21 -3 -5 -2 -20 -3 -32 -4 -13 0 -23 -4 -23 -9 0
-10 246 -85 262 -80 7 3 -6 17 -30 33 -23 15 -42 32 -42 36 0 5 13 50 29 101
16 51 31 104 33 118 2 19 8 24 23 22 42 -7 64 -44 105 -171 49 -154 75 -203
115 -214 17 -5 50 -15 75 -22 24 -8 46 -12 49 -10 2 3 -17 27 -43 55 -26 28
-58 74 -71 103 -28 61 -75 219 -68 230 2 4 19 7 36 7 42 0 115 37 140 71 47
65 23 175 -50 223 -39 26 -276 109 -347 122 -29 5 -37 4 -31 -5z m276 -117
c50 -25 71 -134 35 -188 -9 -14 -34 -35 -56 -46 -35 -18 -47 -19 -101 -11 -34
6 -63 12 -65 14 -6 6 44 174 61 207 26 51 60 57 126 24z"/>
<path d="M10945 2328 c-7 -53 -65 -588 -65 -604 0 -6 -11 -28 -25 -48 -14 -20
-25 -39 -25 -41 0 -10 39 -4 110 19 l74 24 -43 13 -44 13 7 66 c9 96 17 130
31 130 7 0 53 12 101 26 49 15 96 28 105 31 18 5 109 -104 109 -130 0 -8 -9
-26 -20 -40 -11 -14 -20 -27 -20 -30 0 -7 66 10 154 41 80 27 110 52 63 52
-44 0 -89 43 -286 279 -108 129 -201 236 -208 238 -7 3 -14 -12 -18 -39z m124
-225 c45 -54 81 -100 81 -103 0 -5 -64 -25 -184 -57 -18 -5 -19 -1 -12 52 10
89 28 205 31 205 2 0 40 -44 84 -97z"/>
<path d="M10435 2213 c-143 -35 -261 -65 -262 -67 -2 -1 5 -37 14 -79 19 -87
43 -106 43 -34 0 23 7 52 15 64 16 23 93 53 135 53 25 0 28 -4 34 -48 3 -26
29 -131 56 -232 28 -102 53 -206 57 -232 6 -46 5 -48 -31 -69 -34 -20 -51 -47
-22 -36 7 3 62 17 122 32 128 31 157 49 94 58 -24 3 -47 10 -52 15 -5 5 -20
52 -33 103 -13 52 -39 150 -58 219 -38 139 -52 216 -40 223 4 3 46 8 93 12
l85 6 15 -32 c18 -41 45 -53 37 -18 -17 75 -32 129 -37 128 -3 -1 -122 -30
-265 -66z"/>
<path d="M7404 2115 c21 -19 35 -38 33 -42 -3 -5 -22 -123 -42 -263 -21 -140
-42 -261 -47 -267 -6 -7 -28 -13 -49 -13 -26 0 -39 -5 -39 -13 0 -19 339 -72
418 -65 164 15 293 165 295 343 2 124 -67 226 -191 283 -56 25 -299 72 -376
72 l-40 0 38 -35z m304 -61 c86 -36 133 -111 140 -225 5 -92 -14 -166 -61
-235 -46 -66 -101 -94 -186 -94 -66 0 -136 14 -145 29 -4 6 46 375 69 509 l6
32 70 0 c40 0 85 -7 107 -16z"/>
<path d="M9902 2058 c-12 -40 -38 -156 -58 -257 -39 -200 -72 -307 -111 -359
-14 -18 -23 -35 -21 -37 4 -4 170 24 177 30 2 3 -10 10 -27 16 -28 9 -32 16
-32 45 0 19 7 64 16 99 15 59 19 65 43 65 14 0 71 7 125 17 60 10 101 13 103
8 2 -6 21 -39 43 -75 l40 -64 -33 -34 -32 -34 35 5 c19 3 71 11 115 18 44 6
86 13 93 15 24 7 12 22 -23 28 -41 8 -32 -3 -195 254 -141 222 -217 332 -229
332 -4 0 -18 -33 -29 -72z m112 -212 c31 -50 56 -95 56 -102 0 -12 -45 -24
-147 -39 -52 -8 -52 -7 -23 110 11 44 20 92 20 106 0 32 10 43 26 27 6 -7 37
-53 68 -102z"/>
<path d="M8032 2058 c2 -6 18 -16 35 -22 18 -6 34 -14 38 -18 11 -11 -22 -466
-41 -560 -5 -23 -12 -28 -50 -34 -53 -8 -59 -24 -8 -24 19 0 108 -9 197 -19
89 -11 189 -21 221 -23 l60 -3 34 78 c18 44 31 82 27 85 -3 4 -27 -16 -53 -44
-47 -50 -48 -51 -122 -57 -64 -6 -184 4 -197 16 -2 3 0 65 4 138 l8 134 80 -2
c48 -2 95 -9 118 -19 31 -15 38 -23 43 -56 11 -65 29 -37 37 58 4 49 6 100 4
114 -2 24 -3 24 -26 -12 -29 -48 -60 -56 -163 -44 l-80 9 6 56 c3 31 8 89 12
129 6 69 8 73 28 68 11 -3 64 -9 116 -13 80 -5 98 -10 117 -29 13 -13 23 -35
23 -50 0 -41 10 -23 24 44 l12 60 -85 7 c-47 4 -156 15 -241 26 -184 22 -183
22 -178 7z"/>
<path d="M9444 2033 c-15 -46 -28 -80 -97 -248 -41 -99 -77 -192 -81 -207 -3
-16 -10 -28 -14 -28 -13 0 -74 101 -169 280 -51 96 -94 179 -96 184 -1 4 -38
3 -80 -4 l-78 -13 29 -17 29 -18 6 -168 c4 -93 10 -215 13 -270 7 -110 10
-104 -56 -154 l-25 -19 101 -1 c73 0 105 4 120 15 18 13 17 14 -17 15 -20 0
-42 6 -48 14 -18 22 -29 116 -36 316 l-6 185 148 -257 c81 -142 150 -258 153
-258 5 0 188 440 204 492 16 51 26 30 26 -55 0 -46 3 -152 7 -235 l6 -152 -42
-18 -42 -19 47 -7 c72 -9 152 -7 195 6 48 14 50 28 4 28 -58 0 -63 16 -74 270
-16 339 -18 316 27 339 l37 20 -93 1 c-80 0 -93 -2 -98 -17z"/>
</g>
</svg>
