<?xml version="1.0" standalone="no"?>
<!DOCTYPE svg PUBLIC "-//W3C//DTD SVG 20010904//EN"
 "http://www.w3.org/TR/2001/REC-SVG-20010904/DTD/svg10.dtd">
<svg version="1.0" xmlns="http://www.w3.org/2000/svg"
 width="1495.000000pt" height="355.000000pt" viewBox="0 0 1495.000000 355.000000"
 preserveAspectRatio="xMidYMid meet">

<g transform="translate(0.000000,355.000000) scale(0.100000,-0.100000)"
fill="currentColor" stroke="currentColor">
<path d="M12156 2679 c-91 -22 -136 -76 -136 -164 0 -87 35 -124 165 -174 94
-36 125 -63 125 -105 -1 -86 -121 -128 -204 -71 -44 30 -41 30 -77 4 -37 -26
-27 -49 33 -77 100 -47 217 -36 279 27 58 58 73 134 39 201 -21 41 -69 69
-177 104 -65 21 -103 56 -103 93 1 80 121 125 192 73 27 -20 33 -21 55 -9 13
7 29 21 34 31 7 14 1 22 -34 42 -49 29 -132 40 -191 25z"/>
<path d="M12778 2673 l-48 -4 0 -295 0 -296 148 4 c143 3 149 4 214 36 132 65
188 207 142 362 -22 74 -98 150 -174 172 -58 18 -202 28 -282 21z m268 -101
c52 -27 100 -81 113 -129 14 -48 14 -60 0 -123 -22 -105 -104 -157 -255 -162
l-89 -3 -3 210 c-1 115 0 216 3 224 9 22 178 10 231 -17z"/>
<path d="M13978 2673 l-28 -4 0 -293 0 -293 54 -7 c74 -8 239 10 290 33 128
56 196 192 167 333 -23 110 -105 195 -209 217 -56 11 -236 21 -274 14z m250
-88 c100 -30 151 -101 152 -210 0 -105 -53 -178 -149 -205 -20 -6 -73 -13
-118 -17 l-83 -6 0 227 0 226 73 0 c40 0 96 -7 125 -15z"/>
<path d="M8980 2503 c1 -289 21 -357 118 -411 62 -35 176 -33 238 3 24 14 57
45 72 67 l27 41 3 234 3 233 -35 0 -36 0 0 -183 c0 -216 -11 -268 -65 -316
-31 -27 -44 -31 -90 -31 -46 0 -59 4 -90 31 -54 48 -65 100 -65 316 l0 183
-40 0 -40 0 0 -167z"/>
<path d="M9590 2375 l0 -295 40 0 40 0 0 235 c0 129 4 235 8 235 4 0 79 -106
165 -235 l157 -235 55 0 55 0 0 203 c0 112 -3 245 -6 295 l-7 92 -32 0 -33 0
-7 -230 c-4 -126 -10 -230 -14 -230 -3 0 -75 104 -159 230 l-152 230 -55 0
-55 0 0 -295z"/>
<path d="M10260 2375 l0 -295 40 0 40 0 0 295 0 295 -40 0 -40 0 0 -295z"/>
<path d="M10410 2667 c0 -4 189 -504 211 -559 10 -24 17 -28 50 -28 21 0 41 5
44 10 7 12 225 570 225 577 0 2 -19 3 -42 1 l-42 -3 -86 -230 c-47 -126 -89
-229 -94 -228 -5 1 -40 86 -77 190 -112 307 -94 273 -145 273 -24 0 -44 -2
-44 -3z"/>
<path d="M11020 2375 l0 -295 200 0 200 0 0 35 0 35 -160 0 -160 0 0 94 0 93
83 6 c45 4 108 7 140 7 l57 0 0 35 0 35 -140 0 -140 0 0 90 0 90 150 0 150 0
0 35 0 35 -190 0 -190 0 0 -295z"/>
<path d="M11540 2375 l0 -295 35 0 34 0 3 128 3 127 38 3 c21 2 44 -2 52 -8 7
-6 43 -65 80 -131 l66 -119 50 0 c27 0 49 3 49 6 0 3 -32 55 -71 116 -40 61
-74 118 -76 127 -3 12 10 23 42 39 60 29 85 71 85 142 0 71 -26 115 -83 140
-34 16 -66 20 -174 20 l-133 0 0 -295z m281 196 c37 -37 39 -88 7 -126 -26
-29 -119 -51 -175 -40 l-33 6 0 94 0 95 86 0 c81 0 87 -1 115 -29z"/>
<path d="M12520 2375 l0 -295 35 0 35 0 0 295 0 295 -35 0 -35 0 0 -295z"/>
<path d="M13431 2389 c-67 -154 -125 -287 -128 -295 -4 -11 5 -14 40 -14 l45
0 28 70 27 71 146 -3 146 -3 25 -67 25 -68 49 0 c34 0 47 4 43 13 -9 23 -225
522 -238 550 -10 22 -19 27 -49 27 l-37 0 -122 -281z m215 41 c29 -71 49 -131
46 -134 -10 -10 -212 -6 -212 4 0 14 104 260 110 260 3 0 28 -58 56 -130z"/>
<path d="M12287 1938 c-51 -58 -54 -64 -40 -80 15 -16 17 -17 44 -1 16 9 47
33 70 53 l41 35 -22 28 c-12 15 -25 27 -30 27 -4 0 -33 -28 -63 -62z"/>
<path d="M12228 1798 c-101 -13 -181 -70 -222 -158 -32 -68 -30 -216 3 -284
78 -159 271 -215 441 -129 65 33 111 95 136 181 l17 56 17 -67 c33 -133 101
-190 245 -205 74 -8 235 0 256 14 5 3 9 81 9 175 l0 169 -109 0 c-122 0 -113
5 -126 -77 l-7 -42 39 -3 38 -3 0 -50 0 -50 -48 -3 c-43 -3 -51 0 -81 30 -68
68 -71 217 -5 272 57 48 129 57 216 26 31 -11 58 -19 59 -17 1 1 5 34 9 73 9
84 13 81 -127 91 -97 7 -190 -8 -250 -38 -62 -31 -117 -124 -131 -219 -3 -21
-5 -17 -15 20 -21 76 -42 116 -81 153 -74 71 -168 100 -283 85z m127 -161 c35
-35 66 -117 64 -171 -3 -112 -100 -179 -185 -127 -40 24 -67 81 -72 152 -8
107 40 179 120 179 32 0 47 -7 73 -33z"/>
<path d="M10068 1787 c-67 -19 -112 -58 -145 -124 -25 -53 -28 -68 -28 -163 0
-99 2 -109 34 -174 51 -104 122 -141 266 -138 33 0 82 4 108 8 46 6 48 7 43
33 -3 14 -8 44 -11 66 l-6 40 -93 0 c-105 0 -126 10 -152 72 -18 42 -18 144 0
188 23 54 55 69 134 62 37 -3 76 -9 88 -12 19 -6 22 -1 32 62 8 45 8 71 1 78
-15 15 -217 17 -271 2z"/>
<path d="M11134 1790 c-66 -21 -127 -72 -159 -134 -28 -55 -30 -68 -30 -160 0
-113 18 -164 78 -226 85 -87 243 -111 365 -56 119 55 167 143 160 295 -6 130
-55 208 -168 267 -40 21 -195 29 -246 14z m156 -135 c75 -39 109 -194 61 -283
-15 -29 -62 -52 -104 -52 -62 0 -109 55 -127 148 -25 135 69 239 170 187z"/>
<path d="M13593 1791 c-58 -15 -122 -60 -147 -104 -37 -63 -53 -170 -38 -258
29 -168 114 -238 287 -239 50 0 107 3 128 7 l39 6 -7 46 c-11 81 -16 92 -34
86 -33 -10 -131 -7 -160 5 -41 16 -81 97 -81 161 0 126 72 183 195 154 33 -7
61 -12 63 -11 10 10 22 130 13 139 -12 12 -216 19 -258 8z"/>
<path d="M8930 1720 l0 -69 78 -3 77 -3 3 -222 2 -223 85 0 85 0 2 223 3 222
78 3 77 3 0 69 0 70 -245 0 -245 0 0 -70z"/>
<path d="M9460 1495 l0 -295 200 0 200 0 0 65 0 65 -116 0 -115 0 3 48 3 47
98 3 97 3 0 64 0 65 -100 0 -100 0 0 45 0 45 110 0 110 0 0 70 0 70 -195 0
-195 0 0 -295z"/>
<path d="M10397 1783 c-9 -8 -9 -406 -1 -506 l7 -77 63 0 64 0 0 143 c0 78 4
148 8 155 6 8 42 -39 112 -142 57 -86 108 -157 114 -159 6 -1 39 -1 72 1 l61
4 7 60 c8 78 8 219 -1 391 l-6 137 -69 0 -68 0 0 -155 c0 -96 -4 -155 -10
-155 -5 0 -56 70 -112 155 l-103 154 -66 1 c-36 0 -69 -3 -72 -7z"/>
<path d="M11580 1495 l0 -295 190 0 190 0 0 70 0 69 -102 3 -103 3 -3 223 -2
222 -85 0 -85 0 0 -295z"/>
<path d="M13190 1495 l0 -295 85 0 85 0 0 295 0 295 -85 0 -85 0 0 -295z"/>
<path d="M14079 1763 c-6 -16 -48 -136 -94 -268 -46 -132 -88 -252 -94 -267
l-11 -28 88 0 88 0 18 55 17 55 84 0 84 0 18 -57 18 -58 62 -3 c34 -2 75 1 91
5 l30 8 -100 293 -101 292 -94 0 c-93 0 -94 0 -104 -27z m114 -210 c4 -16 13
-49 21 -75 l15 -48 -54 0 -54 0 26 75 c13 41 28 75 33 75 4 0 10 -12 13 -27z"/>
</g>
</svg>
